<svg width="240" height="217" viewBox="0 0 240 217" fill="none" xmlns="http://www.w3.org/2000/svg">
<path d="M2.37013 4.70494C2.05806 4.70746 1.74883 4.64517 1.46174 4.52196C1.17465 4.39875 0.915874 4.21728 0.701566 3.98886C0.481739 3.77489 0.307684 3.51792 0.190087 3.23374C0.07249 2.94957 0.0138352 2.64416 0.0177296 2.33633C0.0163717 2.02476 0.0760609 1.71598 0.193405 1.42769C0.310749 1.13939 0.483442 0.877254 0.701566 0.656262C1.15618 0.234308 1.75183 3.05176e-05 2.37013 3.05176e-05C2.98842 3.05176e-05 3.58406 0.234308 4.03867 0.656262C4.25679 0.877254 4.42949 1.13939 4.54683 1.42769C4.66417 1.71598 4.72386 2.02476 4.72251 2.33633C4.72326 2.6437 4.6632 2.94816 4.54579 3.23189C4.42837 3.51563 4.25597 3.77297 4.03867 3.98886C3.82239 4.21471 3.56325 4.39445 3.27662 4.51746C2.98998 4.64048 2.68171 4.70424 2.37013 4.70494Z" fill="#101417"/>
<path d="M2.37087 39.9924C2.06143 39.9937 1.75475 39.9336 1.46842 39.8155C1.18209 39.6973 0.92174 39.5234 0.702254 39.3038C0.266704 38.8542 0.0215287 38.2518 0.0183942 37.6237C0.0170363 37.3122 0.0767276 37.0034 0.194076 36.7151C0.311424 36.4268 0.484123 36.1646 0.702254 35.9437C1.15688 35.5217 1.75256 35.2874 2.37087 35.2874C2.98919 35.2874 3.58484 35.5217 4.03947 35.9437C4.2576 36.1646 4.4303 36.4268 4.54765 36.7151C4.665 37.0034 4.72469 37.3122 4.72333 37.6237C4.7202 38.2518 4.47502 38.8542 4.03947 39.3038C3.58978 39.7376 2.99355 39.9836 2.37087 39.9924Z" fill="#101417"/>
<path d="M2.39175 75.2797C1.92858 75.2764 1.47658 75.1359 1.09198 74.8756C0.707385 74.6153 0.407146 74.2467 0.228585 73.8157C0.0500237 73.3847 0.00101778 72.9103 0.0876783 72.4514C0.174339 71.9925 0.392845 71.5695 0.716004 71.2348C1.17257 70.8104 1.77079 70.5748 2.39175 70.5748C3.0127 70.5748 3.6109 70.8104 4.06747 71.2348C4.50533 71.6809 4.75094 72.2833 4.75094 72.911C4.75094 73.5387 4.50533 74.141 4.06747 74.5871C3.61586 75.0234 3.01709 75.2709 2.39175 75.2797Z" fill="#101417"/>
<path d="M2.37261 110.566C2.06376 110.574 1.75659 110.518 1.46945 110.403C1.1823 110.288 0.921081 110.115 0.70136 109.895C0.481638 109.675 0.307922 109.413 0.190604 109.124C0.0732868 108.835 0.0147766 108.524 0.0185425 108.212C0.0171836 107.898 0.0769152 107.588 0.194342 107.298C0.31177 107.008 0.484585 106.744 0.702863 106.522C1.1578 106.098 1.75388 105.862 2.37261 105.862C2.99134 105.862 3.5874 106.098 4.04233 106.522C4.47862 106.968 4.72335 107.57 4.72335 108.198C4.72335 108.826 4.47862 109.428 4.04233 109.874C3.59233 110.31 2.99571 110.558 2.37261 110.566Z" fill="#101417"/>
<path d="M2.35812 145.854C1.89227 145.857 1.43635 145.719 1.04836 145.459C0.660365 145.198 0.357842 144.828 0.179293 144.394C0.000743905 143.96 -0.0457674 143.482 0.045682 143.021C0.137131 142.56 0.362414 142.137 0.692846 141.806C1.14656 141.384 1.74104 141.149 2.35812 141.149C2.97519 141.149 3.56965 141.384 4.02337 141.806C4.46019 142.254 4.70498 142.857 4.70498 143.486C4.70498 144.114 4.46019 144.718 4.02337 145.166C3.57457 145.6 2.97955 145.846 2.35812 145.854Z" fill="#101417"/>
<path d="M2.37094 181.142C2.061 181.145 1.75346 181.087 1.46639 180.97C1.17933 180.852 0.918524 180.678 0.699348 180.458C0.480172 180.238 0.307041 179.977 0.19012 179.689C0.0731997 179.401 0.0148661 179.092 0.0185344 178.781C0.0177769 178.474 0.0778613 178.171 0.195275 177.888C0.312689 177.605 0.485077 177.349 0.702374 177.134C1.02975 176.803 1.44733 176.577 1.90247 176.484C2.35762 176.391 2.82996 176.436 3.25997 176.612C3.68998 176.788 4.0584 177.088 4.31882 177.474C4.57924 177.86 4.71998 178.315 4.72333 178.781C4.72469 179.091 4.665 179.399 4.54765 179.686C4.43031 179.974 4.25762 180.235 4.03949 180.455C3.58981 180.888 2.9936 181.133 2.37094 181.142Z" fill="#101417"/>
<path d="M2.37087 216.429C1.74259 216.422 1.14276 216.164 0.702254 215.713C0.484951 215.497 0.312557 215.24 0.19514 214.956C0.0777229 214.672 0.0176367 214.368 0.0183942 214.061C0.0170363 213.749 0.0767276 213.44 0.194076 213.152C0.311424 212.864 0.484123 212.601 0.702254 212.38C1.15688 211.958 1.75256 211.724 2.37087 211.724C2.98919 211.724 3.58484 211.958 4.03947 212.38C4.2576 212.601 4.4303 212.864 4.54765 213.152C4.665 213.44 4.72469 213.749 4.72333 214.061C4.72409 214.368 4.66402 214.672 4.54661 214.956C4.42919 215.24 4.25677 215.497 4.03947 215.713C3.59251 216.155 2.99673 216.41 2.37087 216.429Z" fill="#101417"/>
<path d="M49.4198 4.70497C49.1077 4.70749 48.7985 4.6452 48.5114 4.52199C48.2243 4.39878 47.9656 4.21731 47.7512 3.98889C47.5314 3.77492 47.3574 3.51795 47.2398 3.23377C47.1222 2.9496 47.0635 2.64419 47.0674 2.33636C47.0661 2.02479 47.1257 1.71601 47.2431 1.42772C47.3604 1.13942 47.5331 0.877284 47.7512 0.656293C48.2059 0.234339 48.8015 6.10352e-05 49.4198 6.10352e-05C50.0381 6.10352e-05 50.6337 0.234339 51.0884 0.656293C51.3065 0.877284 51.4792 1.13942 51.5965 1.42772C51.7139 1.71601 51.7735 2.02479 51.7722 2.33636C51.7729 2.64373 51.7129 2.94819 51.5955 3.23192C51.4781 3.51566 51.3056 3.773 51.0884 3.98889C50.8721 4.21474 50.6129 4.39448 50.3263 4.51749C50.0397 4.64051 49.7314 4.70427 49.4198 4.70497Z" fill="#101417"/>
<path d="M49.4207 39.9924C49.1112 39.9937 48.8046 39.9336 48.5182 39.8155C48.2319 39.6973 47.9715 39.5234 47.7521 39.3038C47.3165 38.8542 47.0713 38.2518 47.0682 37.6237C47.0668 37.3122 47.1265 37.0034 47.2439 36.7151C47.3612 36.4268 47.5339 36.1646 47.7521 35.9437C48.2067 35.5217 48.8024 35.2874 49.4207 35.2874C50.039 35.2874 50.6346 35.5217 51.0893 35.9437C51.3074 36.1646 51.4801 36.4268 51.5975 36.7151C51.7148 37.0034 51.7745 37.3122 51.7731 37.6237C51.77 38.2518 51.5248 38.8542 51.0893 39.3038C50.6396 39.7376 50.0434 39.9836 49.4207 39.9924Z" fill="#101417"/>
<path d="M49.4416 75.2797C48.9784 75.2764 48.5264 75.1359 48.1418 74.8756C47.7572 74.6153 47.457 74.2467 47.2784 73.8157C47.0998 73.3847 47.0508 72.9103 47.1375 72.4514C47.2241 71.9925 47.4426 71.5695 47.7658 71.2348C48.2224 70.8104 48.8206 70.5748 49.4416 70.5748C50.0625 70.5748 50.6607 70.8104 51.1173 71.2348C51.5551 71.6809 51.8007 72.2833 51.8007 72.911C51.8007 73.5387 51.5551 74.141 51.1173 74.5871C50.6657 75.0234 50.0669 75.2709 49.4416 75.2797Z" fill="#101417"/>
<path d="M49.4224 110.566C49.1136 110.574 48.8064 110.518 48.5193 110.403C48.2321 110.288 47.9709 110.115 47.7512 109.895C47.5314 109.675 47.3577 109.413 47.2404 109.124C47.1231 108.835 47.0646 108.524 47.0683 108.212C47.067 107.898 47.1267 107.588 47.2441 107.298C47.3616 107.008 47.5344 106.744 47.7527 106.522C48.2076 106.098 48.8037 105.862 49.4224 105.862C50.0411 105.862 50.6372 106.098 51.0921 106.522C51.5284 106.968 51.7732 107.57 51.7732 108.198C51.7732 108.826 51.5284 109.428 51.0921 109.874C50.6421 110.31 50.0455 110.558 49.4224 110.566Z" fill="#101417"/>
<path d="M49.4079 145.854C48.9421 145.857 48.4862 145.719 48.0982 145.459C47.7102 145.198 47.4076 144.828 47.2291 144.394C47.0505 143.96 47.004 143.482 47.0955 143.021C47.1869 142.56 47.4122 142.137 47.7427 141.806C48.1964 141.384 48.7908 141.149 49.4079 141.149C50.025 141.149 50.6195 141.384 51.0732 141.806C51.51 142.254 51.7548 142.857 51.7548 143.486C51.7548 144.114 51.51 144.718 51.0732 145.166C50.6244 145.6 50.0294 145.846 49.4079 145.854Z" fill="#101417"/>
<path d="M49.4207 181.142C49.1108 181.145 48.8033 181.087 48.5162 180.97C48.2291 180.852 47.9683 180.678 47.7492 180.458C47.53 180.238 47.3568 179.977 47.2399 179.689C47.123 179.401 47.0647 179.092 47.0683 178.781C47.0676 178.474 47.1277 178.171 47.2451 177.888C47.3625 177.605 47.5349 177.349 47.7522 177.134C48.0796 176.803 48.4971 176.577 48.9523 176.484C49.4074 176.391 49.8798 176.436 50.3098 176.612C50.7398 176.788 51.1082 177.088 51.3686 177.474C51.629 177.86 51.7698 178.315 51.7731 178.781C51.7745 179.091 51.7148 179.399 51.5975 179.686C51.4801 179.974 51.3074 180.235 51.0893 180.455C50.6396 180.888 50.0434 181.133 49.4207 181.142Z" fill="#101417"/>
<path d="M49.4207 216.429C48.7924 216.422 48.1926 216.164 47.7521 215.713C47.5348 215.497 47.3624 215.24 47.2449 214.956C47.1275 214.672 47.0674 214.368 47.0682 214.061C47.0668 213.749 47.1265 213.44 47.2439 213.152C47.3612 212.864 47.5339 212.601 47.7521 212.38C48.2067 211.958 48.8024 211.724 49.4207 211.724C50.039 211.724 50.6346 211.958 51.0893 212.38C51.3074 212.601 51.4801 212.864 51.5975 213.152C51.7148 213.44 51.7745 213.749 51.7731 214.061C51.7739 214.368 51.7138 214.672 51.5964 214.956C51.479 215.24 51.3066 215.497 51.0893 215.713C50.6423 216.155 50.0465 216.41 49.4207 216.429Z" fill="#101417"/>
<path d="M96.4701 4.70491C96.158 4.70743 95.8488 4.64514 95.5617 4.52193C95.2746 4.39872 95.0158 4.21725 94.8015 3.98883C94.5817 3.77486 94.4076 3.51789 94.29 3.23371C94.1724 2.94953 94.1138 2.64413 94.1177 2.3363C94.1163 2.02473 94.176 1.71595 94.2934 1.42766C94.4107 1.13936 94.5834 0.877223 94.8015 0.656232C95.2561 0.234278 95.8518 0 96.4701 0C97.0884 0 97.684 0.234278 98.1386 0.656232C98.3567 0.877223 98.5294 1.13936 98.6468 1.42766C98.7641 1.71595 98.8238 2.02473 98.8225 2.3363C98.8232 2.64367 98.7631 2.94813 98.6457 3.23186C98.5283 3.5156 98.3559 3.77294 98.1386 3.98883C97.9223 4.21468 97.6632 4.39442 97.3766 4.51743C97.0899 4.64045 96.7817 4.70421 96.4701 4.70491Z" fill="#101417"/>
<path d="M96.4705 39.9924C96.1611 39.9937 95.8544 39.9336 95.5681 39.8155C95.2818 39.6973 95.0214 39.5234 94.8019 39.3038C94.3664 38.8542 94.1212 38.2518 94.1181 37.6237C94.1167 37.3122 94.1764 37.0034 94.2937 36.7151C94.4111 36.4268 94.5838 36.1646 94.8019 35.9437C95.2566 35.5217 95.8522 35.2874 96.4705 35.2874C97.0889 35.2874 97.6845 35.5217 98.1391 35.9437C98.3573 36.1646 98.53 36.4268 98.6473 36.7151C98.7647 37.0034 98.8244 37.3122 98.823 37.6237C98.8199 38.2518 98.5747 38.8542 98.1391 39.3038C97.6894 39.7376 97.0932 39.9836 96.4705 39.9924Z" fill="#101417"/>
<path d="M96.4914 75.2797C96.0282 75.2764 95.5762 75.1359 95.1916 74.8756C94.807 74.6153 94.5068 74.2467 94.3282 73.8157C94.1497 73.3847 94.1007 72.9103 94.1873 72.4514C94.274 71.9925 94.4925 71.5695 94.8156 71.2348C95.2722 70.8104 95.8704 70.5748 96.4914 70.5748C97.1123 70.5748 97.7105 70.8104 98.1671 71.2348C98.605 71.6809 98.8506 72.2833 98.8506 72.911C98.8506 73.5387 98.605 74.141 98.1671 74.5871C97.7155 75.0234 97.1167 75.2709 96.4914 75.2797Z" fill="#101417"/>
<path d="M96.4723 110.566C96.1634 110.574 95.8563 110.518 95.5691 110.403C95.282 110.288 95.0208 110.115 94.801 109.895C94.5813 109.675 94.4076 109.413 94.2903 109.124C94.173 108.835 94.1144 108.524 94.1182 108.212C94.1169 107.898 94.1766 107.588 94.294 107.298C94.4114 107.008 94.5843 106.744 94.8025 106.522C95.2575 106.098 95.8535 105.862 96.4723 105.862C97.091 105.862 97.6871 106.098 98.142 106.522C98.5783 106.968 98.823 107.57 98.823 108.198C98.823 108.826 98.5783 109.428 98.142 109.874C97.692 110.31 97.0954 110.558 96.4723 110.566Z" fill="#101417"/>
<path d="M96.4578 145.854C95.9919 145.857 95.536 145.719 95.148 145.459C94.76 145.198 94.4575 144.828 94.279 144.394C94.1004 143.96 94.0539 143.482 94.1454 143.021C94.2368 142.56 94.4621 142.137 94.7925 141.806C95.2462 141.384 95.8407 141.149 96.4578 141.149C97.0749 141.149 97.6693 141.384 98.123 141.806C98.5599 142.254 98.8047 142.857 98.8047 143.486C98.8047 144.114 98.5599 144.718 98.123 145.166C97.6742 145.6 97.0792 145.846 96.4578 145.854Z" fill="#101417"/>
<path d="M96.4706 181.142C96.1607 181.145 95.8531 181.087 95.5661 180.97C95.279 180.852 95.0182 180.678 94.799 180.458C94.5798 180.238 94.4067 179.977 94.2898 179.689C94.1729 179.401 94.1145 179.092 94.1182 178.781C94.1174 178.474 94.1775 178.171 94.2949 177.888C94.4124 177.605 94.5847 177.349 94.802 177.134C95.1294 176.803 95.547 176.577 96.0021 176.484C96.4573 176.391 96.9296 176.436 97.3596 176.612C97.7896 176.788 98.1581 177.088 98.4185 177.474C98.6789 177.86 98.8197 178.315 98.823 178.781C98.8244 179.091 98.7647 179.399 98.6473 179.686C98.53 179.974 98.3573 180.235 98.1392 180.455C97.6895 180.888 97.0933 181.133 96.4706 181.142Z" fill="#101417"/>
<path d="M96.4705 216.429C95.8423 216.422 95.2424 216.164 94.8019 215.713C94.5846 215.497 94.4122 215.24 94.2948 214.956C94.1774 214.672 94.1173 214.368 94.1181 214.061C94.1167 213.749 94.1764 213.44 94.2937 213.152C94.4111 212.864 94.5838 212.601 94.8019 212.38C95.2566 211.958 95.8522 211.724 96.4705 211.724C97.0889 211.724 97.6845 211.958 98.1391 212.38C98.3573 212.601 98.53 212.864 98.6473 213.152C98.7647 213.44 98.8244 213.749 98.823 214.061C98.8238 214.368 98.7637 214.672 98.6463 214.956C98.5289 215.24 98.3564 215.497 98.1391 215.713C97.6922 216.155 97.0964 216.41 96.4705 216.429Z" fill="#101417"/>
<path d="M143.52 4.70491C143.208 4.70743 142.899 4.64514 142.612 4.52193C142.325 4.39872 142.066 4.21725 141.852 3.98883C141.632 3.77486 141.458 3.51789 141.34 3.23371C141.223 2.94953 141.164 2.64413 141.168 2.3363C141.167 2.02473 141.226 1.71595 141.344 1.42766C141.461 1.13936 141.634 0.877223 141.852 0.656232C142.306 0.234278 142.902 0 143.52 0C144.139 0 144.734 0.234278 145.189 0.656232C145.407 0.877223 145.58 1.13936 145.697 1.42766C145.814 1.71595 145.874 2.02473 145.873 2.3363C145.874 2.64367 145.813 2.94813 145.696 3.23186C145.579 3.5156 145.406 3.77294 145.189 3.98883C144.973 4.21468 144.714 4.39442 144.427 4.51743C144.14 4.64045 143.832 4.70421 143.52 4.70491Z" fill="#101417"/>
<path d="M143.52 39.9923C143.211 39.9937 142.904 39.9336 142.618 39.8154C142.332 39.6973 142.071 39.5234 141.852 39.3038C141.416 38.8541 141.171 38.2518 141.168 37.6237C141.166 37.3121 141.226 37.0033 141.344 36.715C141.461 36.4267 141.634 36.1646 141.852 35.9436C142.306 35.5216 142.902 35.2874 143.52 35.2874C144.139 35.2874 144.734 35.5216 145.189 35.9436C145.407 36.1646 145.58 36.4267 145.697 36.715C145.814 37.0033 145.874 37.3121 145.873 37.6237C145.87 38.2518 145.624 38.8541 145.189 39.3038C144.739 39.7375 144.143 39.9835 143.52 39.9923Z" fill="#101417"/>
<path d="M143.541 75.2797C143.078 75.2764 142.626 75.1358 142.241 74.8755C141.857 74.6153 141.557 74.2467 141.378 73.8157C141.199 73.3846 141.15 72.9102 141.237 72.4513C141.324 71.9925 141.542 71.5694 141.865 71.2348C142.322 70.8103 142.92 70.5747 143.541 70.5747C144.162 70.5747 144.76 70.8103 145.217 71.2348C145.655 71.6809 145.9 72.2832 145.9 72.9109C145.9 73.5386 145.655 74.141 145.217 74.5871C144.765 75.0234 144.167 75.2709 143.541 75.2797Z" fill="#101417"/>
<path d="M143.522 110.566C143.213 110.574 142.906 110.518 142.619 110.403C142.332 110.288 142.071 110.115 141.851 109.895C141.631 109.675 141.457 109.413 141.34 109.124C141.223 108.835 141.164 108.524 141.168 108.212C141.167 107.898 141.226 107.588 141.344 107.298C141.461 107.008 141.634 106.744 141.852 106.522C142.307 106.098 142.903 105.862 143.522 105.862C144.141 105.862 144.737 106.098 145.192 106.522C145.628 106.968 145.873 107.57 145.873 108.198C145.873 108.826 145.628 109.428 145.192 109.874C144.742 110.31 144.145 110.558 143.522 110.566Z" fill="#101417"/>
<path d="M143.508 145.854C143.042 145.856 142.586 145.719 142.198 145.459C141.81 145.198 141.507 144.828 141.329 144.394C141.15 143.959 141.104 143.482 141.195 143.021C141.287 142.56 141.512 142.137 141.842 141.806C142.296 141.384 142.89 141.149 143.508 141.149C144.125 141.149 144.719 141.384 145.173 141.806C145.61 142.254 145.854 142.857 145.854 143.486C145.854 144.114 145.61 144.718 145.173 145.166C144.724 145.6 144.129 145.846 143.508 145.854Z" fill="#101417"/>
<path d="M143.52 181.142C143.21 181.145 142.903 181.087 142.616 180.969C142.329 180.852 142.068 180.678 141.849 180.458C141.63 180.238 141.456 179.977 141.34 179.688C141.223 179.4 141.164 179.092 141.168 178.781C141.167 178.474 141.227 178.171 141.345 177.888C141.462 177.605 141.635 177.349 141.852 177.134C142.179 176.803 142.597 176.577 143.052 176.484C143.507 176.391 143.979 176.436 144.409 176.612C144.839 176.788 145.208 177.088 145.468 177.474C145.729 177.86 145.869 178.315 145.873 178.781C145.874 179.091 145.814 179.399 145.697 179.686C145.58 179.974 145.407 180.235 145.189 180.455C144.739 180.888 144.143 181.133 143.52 181.142Z" fill="#101417"/>
<path d="M143.52 216.429C142.892 216.422 142.292 216.164 141.852 215.713C141.634 215.497 141.462 215.24 141.345 214.956C141.227 214.672 141.167 214.368 141.168 214.06C141.166 213.749 141.226 213.44 141.344 213.152C141.461 212.864 141.634 212.601 141.852 212.38C142.306 211.958 142.902 211.724 143.52 211.724C144.139 211.724 144.734 211.958 145.189 212.38C145.407 212.601 145.58 212.864 145.697 213.152C145.814 213.44 145.874 213.749 145.873 214.06C145.874 214.368 145.813 214.672 145.696 214.956C145.579 215.24 145.406 215.497 145.189 215.713C144.742 216.155 144.146 216.41 143.52 216.429Z" fill="#101417"/>
<path d="M190.57 4.70497C190.258 4.70749 189.949 4.6452 189.662 4.52199C189.375 4.39878 189.116 4.21731 188.902 3.98889C188.682 3.77492 188.508 3.51795 188.39 3.23377C188.273 2.9496 188.214 2.64419 188.218 2.33636C188.217 2.02479 188.276 1.71601 188.394 1.42772C188.511 1.13942 188.684 0.877284 188.902 0.656293C189.356 0.234339 189.952 6.10352e-05 190.57 6.10352e-05C191.189 6.10352e-05 191.784 0.234339 192.239 0.656293C192.457 0.877284 192.63 1.13942 192.747 1.42772C192.864 1.71601 192.924 2.02479 192.923 2.33636C192.923 2.64373 192.863 2.94819 192.746 3.23192C192.629 3.51566 192.456 3.773 192.239 3.98889C192.023 4.21474 191.763 4.39448 191.477 4.51749C191.19 4.64051 190.882 4.70427 190.57 4.70497Z" fill="#101417"/>
<path d="M190.57 39.9924C190.261 39.9937 189.954 39.9336 189.668 39.8155C189.381 39.6973 189.121 39.5234 188.902 39.3038C188.466 38.8542 188.221 38.2518 188.218 37.6237C188.216 37.3122 188.276 37.0034 188.393 36.7151C188.511 36.4268 188.683 36.1646 188.902 35.9437C189.356 35.5217 189.952 35.2874 190.57 35.2874C191.188 35.2874 191.784 35.5217 192.239 35.9437C192.457 36.1646 192.63 36.4268 192.747 36.7151C192.864 37.0034 192.924 37.3122 192.923 37.6237C192.92 38.2518 192.674 38.8542 192.239 39.3038C191.789 39.7376 191.193 39.9836 190.57 39.9924Z" fill="#101417"/>
<path d="M190.591 75.2797C190.128 75.2764 189.676 75.1359 189.291 74.8756C188.907 74.6153 188.606 74.2467 188.428 73.8157C188.249 73.3847 188.2 72.9103 188.287 72.4514C188.374 71.9925 188.592 71.5695 188.915 71.2348C189.372 70.8104 189.97 70.5748 190.591 70.5748C191.212 70.5748 191.81 70.8104 192.267 71.2348C192.705 71.6809 192.95 72.2833 192.95 72.911C192.95 73.5387 192.705 74.141 192.267 74.5871C191.815 75.0234 191.216 75.2709 190.591 75.2797Z" fill="#101417"/>
<path d="M190.572 110.566C190.263 110.574 189.956 110.518 189.669 110.403C189.382 110.288 189.12 110.115 188.901 109.895C188.681 109.675 188.507 109.413 188.39 109.124C188.273 108.835 188.214 108.524 188.218 108.212C188.216 107.898 188.276 107.588 188.394 107.298C188.511 107.008 188.684 106.744 188.902 106.522C189.357 106.098 189.953 105.862 190.572 105.862C191.191 105.862 191.787 106.098 192.242 106.522C192.678 106.968 192.923 107.57 192.923 108.198C192.923 108.826 192.678 109.428 192.242 109.874C191.792 110.31 191.195 110.558 190.572 110.566Z" fill="#101417"/>
<path d="M190.557 145.854C190.092 145.857 189.636 145.719 189.248 145.459C188.86 145.198 188.557 144.828 188.379 144.394C188.2 143.96 188.154 143.482 188.245 143.021C188.336 142.56 188.562 142.137 188.892 141.806C189.346 141.384 189.94 141.149 190.557 141.149C191.175 141.149 191.769 141.384 192.223 141.806C192.659 142.254 192.904 142.857 192.904 143.486C192.904 144.114 192.659 144.718 192.223 145.166C191.774 145.6 191.179 145.846 190.557 145.854Z" fill="#101417"/>
<path d="M190.57 181.142C190.26 181.145 189.953 181.087 189.666 180.97C189.379 180.852 189.118 180.678 188.899 180.458C188.679 180.238 188.506 179.977 188.389 179.689C188.273 179.401 188.214 179.092 188.218 178.781C188.217 178.474 188.277 178.171 188.395 177.888C188.512 177.605 188.684 177.349 188.902 177.134C189.229 176.803 189.647 176.577 190.102 176.484C190.557 176.391 191.029 176.436 191.459 176.612C191.889 176.788 192.258 177.088 192.518 177.474C192.779 177.86 192.919 178.315 192.923 178.781C192.924 179.091 192.864 179.399 192.747 179.686C192.63 179.974 192.457 180.235 192.239 180.455C191.789 180.888 191.193 181.133 190.57 181.142Z" fill="#101417"/>
<path d="M190.57 216.429C189.942 216.422 189.342 216.164 188.902 215.713C188.684 215.497 188.512 215.24 188.394 214.956C188.277 214.672 188.217 214.368 188.218 214.061C188.216 213.749 188.276 213.44 188.393 213.152C188.511 212.864 188.683 212.601 188.902 212.38C189.356 211.958 189.952 211.724 190.57 211.724C191.188 211.724 191.784 211.958 192.239 212.38C192.457 212.601 192.63 212.864 192.747 213.152C192.864 213.44 192.924 213.749 192.923 214.061C192.923 214.368 192.863 214.672 192.746 214.956C192.628 215.24 192.456 215.497 192.239 215.713C191.792 216.155 191.196 216.41 190.57 216.429Z" fill="#101417"/>
<path d="M237.619 4.70497C237.307 4.70749 236.998 4.6452 236.711 4.52199C236.424 4.39878 236.165 4.21731 235.951 3.98889C235.731 3.77492 235.557 3.51795 235.439 3.23377C235.321 2.9496 235.263 2.64419 235.267 2.33636C235.265 2.02479 235.325 1.71601 235.442 1.42772C235.56 1.13942 235.732 0.877284 235.951 0.656293C236.405 0.234339 237.001 6.10352e-05 237.619 6.10352e-05C238.237 6.10352e-05 238.833 0.234339 239.288 0.656293C239.506 0.877284 239.678 1.13942 239.796 1.42772C239.913 1.71601 239.973 2.02479 239.971 2.33636C239.972 2.64373 239.912 2.94819 239.795 3.23192C239.677 3.51566 239.505 3.773 239.288 3.98889C239.071 4.21474 238.812 4.39448 238.526 4.51749C238.239 4.64051 237.931 4.70427 237.619 4.70497Z" fill="#101417"/>
<path d="M237.62 39.9924C237.311 39.9937 237.004 39.9336 236.717 39.8155C236.431 39.6973 236.171 39.5234 235.951 39.3038C235.516 38.8542 235.271 38.2518 235.267 37.6237C235.266 37.3122 235.326 37.0034 235.443 36.7151C235.56 36.4268 235.733 36.1646 235.951 35.9437C236.406 35.5217 237.002 35.2874 237.62 35.2874C238.238 35.2874 238.834 35.5217 239.289 35.9437C239.507 36.1646 239.679 36.4268 239.797 36.7151C239.914 37.0034 239.974 37.3122 239.972 37.6237C239.969 38.2518 239.724 38.8542 239.289 39.3038C238.839 39.7376 238.243 39.9836 237.62 39.9924Z" fill="#101417"/>
<path d="M237.641 75.2797C237.178 75.2764 236.726 75.1359 236.341 74.8756C235.956 74.6153 235.656 74.2467 235.478 73.8157C235.299 73.3847 235.25 72.9103 235.337 72.4514C235.423 71.9925 235.642 71.5695 235.965 71.2348C236.422 70.8104 237.02 70.5748 237.641 70.5748C238.262 70.5748 238.86 70.8104 239.317 71.2348C239.754 71.6809 240 72.2833 240 72.911C240 73.5387 239.754 74.141 239.317 74.5871C238.865 75.0234 238.266 75.2709 237.641 75.2797Z" fill="#101417"/>
<path d="M237.622 110.566C237.313 110.574 237.006 110.518 236.719 110.403C236.431 110.288 236.17 110.115 235.95 109.895C235.731 109.675 235.557 109.413 235.44 109.124C235.322 108.835 235.264 108.524 235.268 108.212C235.266 107.898 235.326 107.588 235.443 107.298C235.561 107.008 235.734 106.744 235.952 106.522C236.407 106.098 237.003 105.862 237.622 105.862C238.24 105.862 238.836 106.098 239.291 106.522C239.728 106.968 239.972 107.57 239.972 108.198C239.972 108.826 239.728 109.428 239.291 109.874C238.841 110.31 238.245 110.558 237.622 110.566Z" fill="#101417"/>
<path d="M237.607 145.854C237.141 145.857 236.685 145.719 236.297 145.459C235.909 145.198 235.607 144.828 235.428 144.394C235.25 143.96 235.203 143.482 235.295 143.021C235.386 142.56 235.611 142.137 235.942 141.806C236.396 141.384 236.99 141.149 237.607 141.149C238.224 141.149 238.819 141.384 239.272 141.806C239.709 142.254 239.954 142.857 239.954 143.486C239.954 144.114 239.709 144.718 239.272 145.166C238.824 145.6 238.229 145.846 237.607 145.854Z" fill="#101417"/>
<path d="M237.62 181.142C237.31 181.145 237.003 181.087 236.715 180.97C236.428 180.852 236.168 180.678 235.948 180.458C235.729 180.238 235.556 179.977 235.439 179.689C235.322 179.401 235.264 179.092 235.268 178.781C235.267 178.474 235.327 178.171 235.444 177.888C235.562 177.605 235.734 177.349 235.951 177.134C236.279 176.803 236.696 176.577 237.152 176.484C237.607 176.391 238.079 176.436 238.509 176.612C238.939 176.788 239.307 177.088 239.568 177.474C239.828 177.86 239.969 178.315 239.972 178.781C239.974 179.091 239.914 179.399 239.797 179.686C239.679 179.974 239.507 180.235 239.289 180.455C238.839 180.888 238.243 181.133 237.62 181.142Z" fill="#101417"/>
<path d="M237.62 216.429C236.992 216.422 236.392 216.164 235.951 215.713C235.734 215.497 235.562 215.24 235.444 214.956C235.327 214.672 235.267 214.368 235.267 214.061C235.266 213.749 235.326 213.44 235.443 213.152C235.56 212.864 235.733 212.601 235.951 212.38C236.406 211.958 237.002 211.724 237.62 211.724C238.238 211.724 238.834 211.958 239.289 212.38C239.507 212.601 239.679 212.864 239.797 213.152C239.914 213.44 239.974 213.749 239.972 214.061C239.973 214.368 239.913 214.672 239.796 214.956C239.678 215.24 239.506 215.497 239.289 215.713C238.842 216.155 238.246 216.41 237.62 216.429Z" fill="#101417"/>
</svg>
