<svg width="149" height="134" viewBox="0 0 149 134" fill="none" xmlns="http://www.w3.org/2000/svg">
<path d="M1.46592 2.90972C1.27293 2.91127 1.08168 2.87275 0.904137 2.79655C0.72659 2.72036 0.56655 2.60813 0.434012 2.46686C0.298062 2.33453 0.190419 2.17561 0.117692 1.99987C0.0449651 1.82412 0.00869041 1.63524 0.0110989 1.44486C0.0102591 1.25218 0.0471735 1.06122 0.119744 0.882923C0.192315 0.704631 0.299116 0.542512 0.434012 0.405842C0.715163 0.144887 1.08354 0 1.46592 0C1.8483 0 2.21667 0.144887 2.49782 0.405842C2.63272 0.542512 2.73952 0.704631 2.81209 0.882923C2.88466 1.06122 2.92157 1.25218 2.92073 1.44486C2.9212 1.63496 2.88406 1.82325 2.81144 1.99872C2.73883 2.1742 2.6322 2.33334 2.49782 2.46686C2.36406 2.60654 2.2038 2.71769 2.02653 2.79377C1.84926 2.86985 1.65862 2.90929 1.46592 2.90972Z" fill="#101417"/>
<path d="M1.46538 24.733C1.27401 24.7339 1.08435 24.6967 0.907272 24.6236C0.730194 24.5506 0.569179 24.443 0.43344 24.3072C0.164077 24.0291 0.0124505 23.6566 0.0105121 23.2682C0.00967227 23.0755 0.0465879 22.8845 0.119161 22.7062C0.191734 22.5279 0.298538 22.3658 0.43344 22.2291C0.7146 21.9682 1.08299 21.8233 1.46538 21.8233C1.84778 21.8233 2.21616 21.9682 2.49732 22.2291C2.63222 22.3658 2.73902 22.5279 2.8116 22.7062C2.88417 22.8845 2.92108 23.0755 2.92024 23.2682C2.91831 23.6566 2.76668 24.0291 2.49732 24.3072C2.21921 24.5754 1.85048 24.7276 1.46538 24.733Z" fill="#101417"/>
<path d="M1.47924 46.5562C1.1928 46.5542 0.913263 46.4673 0.67541 46.3063C0.437557 46.1453 0.251876 45.9173 0.141447 45.6508C0.0310169 45.3842 0.00070956 45.0908 0.0543041 44.807C0.107899 44.5233 0.243032 44.2616 0.442887 44.0547C0.725248 43.7922 1.09521 43.6465 1.47924 43.6465C1.86326 43.6465 2.23322 43.7922 2.51558 44.0547C2.78637 44.3306 2.93826 44.7031 2.93826 45.0913C2.93826 45.4794 2.78637 45.852 2.51558 46.1279C2.23628 46.3977 1.86597 46.5508 1.47924 46.5562Z" fill="#101417"/>
<path d="M1.46646 68.379C1.27546 68.3836 1.08548 68.3492 0.907904 68.2779C0.730323 68.2066 0.568772 68.0998 0.432887 67.9638C0.297002 67.8279 0.189568 67.6657 0.117014 67.4868C0.0444599 67.308 0.00827475 67.1161 0.0106037 66.9228C0.00976338 66.729 0.0467039 66.537 0.119326 66.3577C0.191948 66.1783 0.298824 66.0153 0.433817 65.8778C0.715167 65.6153 1.08381 65.4696 1.46646 65.4696C1.84911 65.4696 2.21774 65.6153 2.49909 65.8778C2.7689 66.1536 2.92026 66.5261 2.92026 66.9143C2.92026 67.3024 2.7689 67.6748 2.49909 67.9507C2.22079 68.2205 1.85181 68.3735 1.46646 68.379Z" fill="#101417"/>
<path d="M1.45836 90.2026C1.17026 90.2039 0.888299 90.1187 0.648348 89.9578C0.408398 89.7969 0.221304 89.5677 0.110882 89.2992C0.000460062 89.0307 -0.0283045 88.7352 0.0282517 88.4502C0.0848079 88.1652 0.224132 87.9036 0.428485 87.6987C0.709082 87.4378 1.07674 87.2929 1.45836 87.2929C1.83999 87.2929 2.20763 87.4378 2.48822 87.6987C2.75837 87.9759 2.90976 88.349 2.90976 88.7378C2.90976 89.1265 2.75837 89.4996 2.48822 89.7768C2.21067 90.045 1.84268 90.1972 1.45836 90.2026Z" fill="#101417"/>
<path d="M1.46543 112.026C1.27375 112.028 1.08355 111.992 0.906015 111.919C0.728483 111.847 0.56719 111.739 0.431643 111.603C0.296095 111.467 0.189023 111.305 0.116715 111.127C0.0444061 110.949 0.00833013 110.758 0.0105988 110.566C0.0101303 110.376 0.047289 110.189 0.119903 110.014C0.192516 109.839 0.299129 109.68 0.433514 109.547C0.63598 109.343 0.894226 109.203 1.17571 109.145C1.45719 109.088 1.7493 109.115 2.01524 109.224C2.28117 109.333 2.50903 109.519 2.67008 109.758C2.83114 109.996 2.91818 110.277 2.92024 110.566C2.92108 110.758 2.88417 110.948 2.8116 111.126C2.73903 111.304 2.63223 111.465 2.49733 111.601C2.21923 111.869 1.85051 112.02 1.46543 112.026Z" fill="#101417"/>
<path d="M1.46538 133.849C1.07683 133.844 0.705869 133.685 0.43344 133.406C0.299051 133.273 0.192435 133.113 0.119819 132.938C0.0472034 132.763 0.0100436 132.574 0.0105121 132.384C0.00967227 132.191 0.0465879 132 0.119161 131.822C0.191734 131.644 0.298538 131.482 0.43344 131.345C0.7146 131.084 1.08299 130.939 1.46538 130.939C1.84778 130.939 2.21616 131.084 2.49732 131.345C2.63222 131.482 2.73902 131.644 2.8116 131.822C2.88417 132 2.92108 132.191 2.92024 132.384C2.92071 132.574 2.88357 132.763 2.81095 132.938C2.73833 133.113 2.63171 133.273 2.49732 133.406C2.2209 133.679 1.85244 133.837 1.46538 133.849Z" fill="#101417"/>
<path d="M30.5657 2.90972C30.3727 2.91127 30.1815 2.87275 30.0039 2.79655C29.8264 2.72036 29.6663 2.60813 29.5338 2.46686C29.3979 2.33453 29.2902 2.17561 29.2175 1.99987C29.1448 1.82412 29.1085 1.63524 29.1109 1.44486C29.1101 1.25218 29.147 1.06122 29.2195 0.882923C29.2921 0.704631 29.3989 0.542512 29.5338 0.405842C29.815 0.144887 30.1833 0 30.5657 0C30.9481 0 31.3165 0.144887 31.5976 0.405842C31.7325 0.542512 31.8393 0.704631 31.9119 0.882923C31.9845 1.06122 32.0214 1.25218 32.0205 1.44486C32.021 1.63496 31.9838 1.82325 31.9112 1.99872C31.8386 2.1742 31.732 2.33334 31.5976 2.46686C31.4639 2.60654 31.3036 2.71769 31.1263 2.79377C30.9491 2.86985 30.7584 2.90929 30.5657 2.90972Z" fill="#101417"/>
<path d="M30.5634 24.733C30.372 24.7339 30.1824 24.6967 30.0053 24.6236C29.8282 24.5506 29.6672 24.443 29.5315 24.3072C29.2621 24.0291 29.1105 23.6566 29.1085 23.2682C29.1077 23.0755 29.1446 22.8845 29.2172 22.7062C29.2898 22.5279 29.3966 22.3658 29.5315 22.2291C29.8126 21.9682 30.181 21.8233 30.5634 21.8233C30.9458 21.8233 31.3142 21.9682 31.5953 22.2291C31.7302 22.3658 31.837 22.5279 31.9096 22.7062C31.9822 22.8845 32.0191 23.0755 32.0183 23.2682C32.0163 23.6566 31.8647 24.0291 31.5953 24.3072C31.3172 24.5754 30.9485 24.7276 30.5634 24.733Z" fill="#101417"/>
<path d="M30.5773 46.5562C30.2908 46.5542 30.0113 46.4673 29.7734 46.3063C29.5356 46.1453 29.3499 45.9173 29.2395 45.6508C29.129 45.3842 29.0987 45.0908 29.1523 44.807C29.2059 44.5233 29.3411 44.2616 29.5409 44.0547C29.8233 43.7922 30.1932 43.6465 30.5773 43.6465C30.9613 43.6465 31.3312 43.7922 31.6136 44.0547C31.8844 44.3306 32.0363 44.7031 32.0363 45.0913C32.0363 45.4794 31.8844 45.852 31.6136 46.1279C31.3343 46.3977 30.964 46.5508 30.5773 46.5562Z" fill="#101417"/>
<path d="M30.5645 68.379C30.3735 68.3836 30.1835 68.3492 30.0059 68.2779C29.8283 68.2066 29.6668 68.0998 29.5309 67.9638C29.395 67.8279 29.2876 67.6657 29.215 67.4868C29.1425 67.308 29.1063 67.1161 29.1086 66.9228C29.1078 66.729 29.1447 66.537 29.2173 66.3577C29.29 66.1783 29.3968 66.0153 29.5318 65.8778C29.8132 65.6153 30.1818 65.4696 30.5645 65.4696C30.9471 65.4696 31.3158 65.6153 31.5971 65.8778C31.8669 66.1536 32.0183 66.5261 32.0183 66.9143C32.0183 67.3024 31.8669 67.6748 31.5971 67.9507C31.3188 68.2205 30.9498 68.3735 30.5645 68.379Z" fill="#101417"/>
<path d="M30.5564 90.2026C30.2683 90.2039 29.9863 90.1187 29.7464 89.9578C29.5064 89.7969 29.3193 89.5677 29.2089 89.2992C29.0985 89.0307 29.0697 88.7352 29.1263 88.4502C29.1828 88.1652 29.3222 87.9036 29.5265 87.6987C29.8071 87.4378 30.1748 87.2929 30.5564 87.2929C30.938 87.2929 31.3056 87.4378 31.5862 87.6987C31.8564 87.9759 32.0078 88.349 32.0078 88.7378C32.0078 89.1265 31.8564 89.4996 31.5862 89.7768C31.3087 90.045 30.9407 90.1972 30.5564 90.2026Z" fill="#101417"/>
<path d="M30.5635 112.026C30.3718 112.028 30.1816 111.992 30.004 111.919C29.8265 111.847 29.6652 111.739 29.5297 111.603C29.3941 111.467 29.287 111.305 29.2147 111.127C29.1424 110.949 29.1064 110.758 29.1086 110.566C29.1082 110.376 29.1453 110.189 29.2179 110.014C29.2905 109.839 29.3972 109.68 29.5315 109.547C29.734 109.343 29.9922 109.203 30.2737 109.145C30.5552 109.088 30.8473 109.115 31.1133 109.224C31.3792 109.333 31.607 109.519 31.7681 109.758C31.9292 109.996 32.0162 110.277 32.0183 110.566C32.0191 110.758 31.9822 110.948 31.9096 111.126C31.8371 111.304 31.7302 111.465 31.5954 111.601C31.3172 111.869 30.9485 112.02 30.5635 112.026Z" fill="#101417"/>
<path d="M30.5634 133.849C30.1748 133.844 29.8039 133.685 29.5315 133.406C29.3971 133.273 29.2905 133.113 29.2178 132.938C29.1452 132.763 29.1081 132.574 29.1085 132.384C29.1077 132.191 29.1446 132 29.2172 131.822C29.2898 131.644 29.3966 131.482 29.5315 131.345C29.8126 131.084 30.181 130.939 30.5634 130.939C30.9458 130.939 31.3142 131.084 31.5953 131.345C31.7302 131.482 31.837 131.644 31.9096 131.822C31.9822 132 32.0191 132.191 32.0183 132.384C32.0187 132.574 31.9816 132.763 31.909 132.938C31.8364 133.113 31.7297 133.273 31.5953 133.406C31.3189 133.679 30.9505 133.837 30.5634 133.849Z" fill="#101417"/>
<path d="M59.6622 2.90975C59.4692 2.9113 59.278 2.87278 59.1004 2.79658C58.9229 2.72039 58.7628 2.60816 58.6303 2.46689C58.4944 2.33456 58.3867 2.17564 58.314 1.9999C58.2413 1.82415 58.205 1.63527 58.2074 1.44489C58.2065 1.25221 58.2435 1.06125 58.316 0.882954C58.3886 0.704661 58.4954 0.542543 58.6303 0.405872C58.9115 0.144918 59.2798 3.05176e-05 59.6622 3.05176e-05C60.0446 3.05176e-05 60.413 0.144918 60.6941 0.405872C60.829 0.542543 60.9358 0.704661 61.0084 0.882954C61.0809 1.06125 61.1179 1.25221 61.117 1.44489C61.1175 1.63499 61.0803 1.82328 61.0077 1.99875C60.9351 2.17423 60.8285 2.33337 60.6941 2.46689C60.5604 2.60657 60.4001 2.71772 60.2228 2.7938C60.0456 2.86988 59.8549 2.90932 59.6622 2.90975Z" fill="#101417"/>
<path d="M59.6614 24.733C59.4701 24.7339 59.2804 24.6967 59.1033 24.6236C58.9262 24.5506 58.7652 24.443 58.6295 24.3072C58.3601 24.0291 58.2085 23.6566 58.2066 23.2682C58.2057 23.0755 58.2426 22.8845 58.3152 22.7062C58.3878 22.5279 58.4946 22.3658 58.6295 22.2291C58.9106 21.9682 59.279 21.8233 59.6614 21.8233C60.0438 21.8233 60.4122 21.9682 60.6934 22.2291C60.8283 22.3658 60.9351 22.5279 61.0076 22.7062C61.0802 22.8845 61.1171 23.0755 61.1163 23.2682C61.1144 23.6566 60.9627 24.0291 60.6934 24.3072C60.4153 24.5754 60.0465 24.7276 59.6614 24.733Z" fill="#101417"/>
<path d="M59.6753 46.5562C59.3888 46.5542 59.1093 46.4673 58.8715 46.3063C58.6336 46.1453 58.4479 45.9173 58.3375 45.6508C58.2271 45.3842 58.1968 45.0908 58.2503 44.807C58.3039 44.5233 58.4391 44.2616 58.6389 44.0547C58.9213 43.7922 59.2913 43.6465 59.6753 43.6465C60.0593 43.6465 60.4293 43.7922 60.7116 44.0547C60.9824 44.3306 61.1343 44.7031 61.1343 45.0913C61.1343 45.4794 60.9824 45.852 60.7116 46.1279C60.4323 46.3977 60.062 46.5508 59.6753 46.5562Z" fill="#101417"/>
<path d="M59.6625 68.379C59.4715 68.3836 59.2815 68.3492 59.1039 68.2779C58.9264 68.2066 58.7648 68.0998 58.6289 67.9638C58.493 67.8279 58.3856 67.6657 58.3131 67.4868C58.2405 67.308 58.2043 67.1161 58.2066 66.9228C58.2058 66.729 58.2427 66.537 58.3154 66.3577C58.388 66.1783 58.4949 66.0153 58.6299 65.8778C58.9112 65.6153 59.2799 65.4696 59.6625 65.4696C60.0452 65.4696 60.4138 65.6153 60.6951 65.8778C60.9649 66.1536 61.1163 66.5261 61.1163 66.9143C61.1163 67.3024 60.9649 67.6748 60.6951 67.9507C60.4168 68.2205 60.0479 68.3735 59.6625 68.379Z" fill="#101417"/>
<path d="M59.6544 90.2026C59.3663 90.2039 59.0843 90.1187 58.8444 89.9578C58.6044 89.7969 58.4173 89.5677 58.3069 89.2992C58.1965 89.0307 58.1677 88.7352 58.2243 88.4502C58.2809 88.1652 58.4202 87.9036 58.6245 87.6987C58.9051 87.4378 59.2728 87.2929 59.6544 87.2929C60.036 87.2929 60.4037 87.4378 60.6843 87.6987C60.9544 87.9759 61.1058 88.349 61.1058 88.7378C61.1058 89.1265 60.9544 89.4996 60.6843 89.7768C60.4067 90.045 60.0387 90.1972 59.6544 90.2026Z" fill="#101417"/>
<path d="M59.6615 112.026C59.4698 112.028 59.2796 111.992 59.1021 111.919C58.9245 111.847 58.7632 111.739 58.6277 111.603C58.4921 111.467 58.3851 111.305 58.3128 111.127C58.2405 110.949 58.2044 110.758 58.2066 110.566C58.2062 110.376 58.2433 110.189 58.3159 110.014C58.3886 109.839 58.4952 109.68 58.6296 109.547C58.832 109.343 59.0903 109.203 59.3718 109.145C59.6532 109.088 59.9453 109.115 60.2113 109.224C60.4772 109.333 60.7051 109.519 60.8661 109.758C61.0272 109.996 61.1142 110.277 61.1163 110.566C61.1171 110.758 61.0802 110.948 61.0076 111.126C60.9351 111.304 60.8283 111.465 60.6934 111.601C60.4153 111.869 60.0466 112.02 59.6615 112.026Z" fill="#101417"/>
<path d="M59.6614 133.849C59.2729 133.844 58.9019 133.685 58.6295 133.406C58.4951 133.273 58.3885 133.113 58.3159 132.938C58.2432 132.763 58.2061 132.574 58.2066 132.384C58.2057 132.191 58.2426 132 58.3152 131.822C58.3878 131.644 58.4946 131.482 58.6295 131.345C58.9106 131.084 59.279 130.939 59.6614 130.939C60.0438 130.939 60.4122 131.084 60.6934 131.345C60.8283 131.482 60.9351 131.644 61.0076 131.822C61.0802 132 61.1171 132.191 61.1163 132.384C61.1168 132.574 61.0796 132.763 61.007 132.938C60.9344 133.113 60.8278 133.273 60.6934 133.406C60.4169 133.679 60.0485 133.837 59.6614 133.849Z" fill="#101417"/>
<path d="M88.7582 2.90972C88.5652 2.91127 88.374 2.87275 88.1964 2.79655C88.0189 2.72036 87.8588 2.60813 87.7263 2.46686C87.5904 2.33453 87.4827 2.17561 87.41 1.99987C87.3373 1.82412 87.301 1.63524 87.3034 1.44486C87.3026 1.25218 87.3395 1.06122 87.412 0.882923C87.4846 0.704631 87.5914 0.542512 87.7263 0.405842C88.0075 0.144887 88.3758 0 88.7582 0C89.1406 0 89.509 0.144887 89.7901 0.405842C89.925 0.542512 90.0318 0.704631 90.1044 0.882923C90.177 1.06122 90.2139 1.25218 90.213 1.44486C90.2135 1.63496 90.1764 1.82325 90.1037 1.99872C90.0311 2.1742 89.9245 2.33334 89.7901 2.46686C89.6564 2.60654 89.4961 2.71769 89.3188 2.79377C89.1416 2.86985 88.9509 2.90929 88.7582 2.90972Z" fill="#101417"/>
<path d="M88.758 24.733C88.5666 24.7338 88.377 24.6966 88.1999 24.6236C88.0228 24.5505 87.8618 24.443 87.726 24.3071C87.4567 24.029 87.3051 23.6565 87.3031 23.2681C87.3023 23.0754 87.3392 22.8844 87.4118 22.7061C87.4843 22.5279 87.5911 22.3657 87.726 22.2291C88.0072 21.9681 88.3756 21.8232 88.758 21.8232C89.1404 21.8232 89.5088 21.9681 89.7899 22.2291C89.9248 22.3657 90.0316 22.5279 90.1042 22.7061C90.1768 22.8844 90.2137 23.0754 90.2128 23.2681C90.2109 23.6565 90.0593 24.029 89.7899 24.3071C89.5118 24.5754 89.1431 24.7275 88.758 24.733Z" fill="#101417"/>
<path d="M88.7718 46.5562C88.4854 46.5541 88.2059 46.4672 87.968 46.3062C87.7302 46.1453 87.5445 45.9173 87.434 45.6507C87.3236 45.3842 87.2933 45.0908 87.3469 44.807C87.4005 44.5232 87.5356 44.2616 87.7355 44.0546C88.0179 43.7921 88.3878 43.6464 88.7718 43.6464C89.1559 43.6464 89.5258 43.7921 89.8082 44.0546C90.079 44.3305 90.2309 44.703 90.2309 45.0912C90.2309 45.4794 90.079 45.8519 89.8082 46.1278C89.5289 46.3977 89.1586 46.5507 88.7718 46.5562Z" fill="#101417"/>
<path d="M88.7591 68.379C88.5681 68.3836 88.3781 68.3492 88.2005 68.2779C88.0229 68.2066 87.8614 68.0998 87.7255 67.9638C87.5896 67.8279 87.4822 67.6657 87.4096 67.4868C87.3371 67.308 87.3009 67.1161 87.3032 66.9228C87.3024 66.729 87.3393 66.537 87.4119 66.3577C87.4846 66.1783 87.5914 66.0153 87.7264 65.8778C88.0078 65.6153 88.3764 65.4696 88.7591 65.4696C89.1417 65.4696 89.5103 65.6153 89.7917 65.8778C90.0615 66.1536 90.2129 66.5261 90.2129 66.9143C90.2129 67.3024 90.0615 67.6748 89.7917 67.9507C89.5134 68.2205 89.1444 68.3735 88.7591 68.379Z" fill="#101417"/>
<path d="M88.751 90.2026C88.4629 90.2039 88.1809 90.1186 87.941 89.9578C87.701 89.7969 87.5139 89.5676 87.4035 89.2992C87.2931 89.0307 87.2643 88.7352 87.3209 88.4501C87.3774 88.1651 87.5167 87.9036 87.7211 87.6987C88.0017 87.4377 88.3693 87.2928 88.751 87.2928C89.1326 87.2928 89.5002 87.4377 89.7808 87.6987C90.051 87.9758 90.2024 88.349 90.2024 88.7377C90.2024 89.1264 90.051 89.4996 89.7808 89.7767C89.5033 90.045 89.1353 90.1972 88.751 90.2026Z" fill="#101417"/>
<path d="M88.758 112.026C88.5664 112.028 88.3762 111.992 88.1986 111.919C88.0211 111.847 87.8598 111.739 87.7242 111.603C87.5887 111.467 87.4816 111.305 87.4093 111.127C87.337 110.949 87.3009 110.758 87.3032 110.566C87.3027 110.376 87.3399 110.188 87.4125 110.014C87.4851 109.839 87.5917 109.68 87.7261 109.547C87.9286 109.342 88.1868 109.203 88.4683 109.145C88.7498 109.088 89.0419 109.115 89.3078 109.224C89.5738 109.333 89.8016 109.519 89.9627 109.757C90.1237 109.996 90.2108 110.277 90.2128 110.566C90.2137 110.758 90.1768 110.948 90.1042 111.126C90.0316 111.303 89.9248 111.465 89.7899 111.601C89.5118 111.869 89.1431 112.02 88.758 112.026Z" fill="#101417"/>
<path d="M88.758 133.849C88.3694 133.844 87.9985 133.685 87.726 133.406C87.5917 133.273 87.485 133.113 87.4124 132.938C87.3398 132.763 87.3026 132.574 87.3031 132.384C87.3023 132.191 87.3392 132 87.4118 131.822C87.4843 131.644 87.5911 131.482 87.726 131.345C88.0072 131.084 88.3756 130.939 88.758 130.939C89.1404 130.939 89.5088 131.084 89.7899 131.345C89.9248 131.482 90.0316 131.644 90.1042 131.822C90.1768 132 90.2137 132.191 90.2128 132.384C90.2133 132.574 90.1762 132.763 90.1036 132.938C90.0309 133.113 89.9243 133.273 89.7899 133.406C89.5135 133.679 89.145 133.837 88.758 133.849Z" fill="#101417"/>
<path d="M117.856 2.90978C117.663 2.91133 117.472 2.87281 117.295 2.79661C117.117 2.72042 116.957 2.60819 116.825 2.46692C116.689 2.33459 116.581 2.17567 116.508 1.99993C116.435 1.82418 116.399 1.6353 116.402 1.44493C116.401 1.25224 116.438 1.06128 116.51 0.882985C116.583 0.704692 116.69 0.542573 116.825 0.405903C117.106 0.144948 117.474 6.10352e-05 117.856 6.10352e-05C118.239 6.10352e-05 118.607 0.144948 118.888 0.405903C119.023 0.542573 119.13 0.704692 119.203 0.882985C119.275 1.06128 119.312 1.25224 119.311 1.44493C119.312 1.63502 119.275 1.82331 119.202 1.99878C119.129 2.17426 119.023 2.3334 118.888 2.46692C118.755 2.6066 118.594 2.71775 118.417 2.79383C118.24 2.86991 118.049 2.90935 117.856 2.90978Z" fill="#101417"/>
<path d="M117.856 24.733C117.665 24.7339 117.475 24.6967 117.298 24.6236C117.121 24.5506 116.96 24.443 116.824 24.3072C116.555 24.0291 116.403 23.6566 116.401 23.2682C116.4 23.0755 116.437 22.8845 116.51 22.7062C116.582 22.5279 116.689 22.3658 116.824 22.2291C117.105 21.9682 117.474 21.8233 117.856 21.8233C118.238 21.8233 118.607 21.9682 118.888 22.2291C119.023 22.3658 119.13 22.5279 119.202 22.7062C119.275 22.8845 119.312 23.0755 119.311 23.2682C119.309 23.6566 119.157 24.0291 118.888 24.3072C118.61 24.5754 118.241 24.7276 117.856 24.733Z" fill="#101417"/>
<path d="M117.87 46.5562C117.583 46.5542 117.304 46.4673 117.066 46.3063C116.828 46.1453 116.642 45.9173 116.532 45.6508C116.422 45.3842 116.391 45.0908 116.445 44.807C116.498 44.5233 116.634 44.2616 116.833 44.0547C117.116 43.7922 117.486 43.6465 117.87 43.6465C118.254 43.6465 118.624 43.7922 118.906 44.0547C119.177 44.3306 119.329 44.7031 119.329 45.0913C119.329 45.4794 119.177 45.852 118.906 46.1279C118.627 46.3977 118.257 46.5508 117.87 46.5562Z" fill="#101417"/>
<path d="M117.857 68.379C117.666 68.3837 117.476 68.3493 117.298 68.278C117.121 68.2066 116.959 68.0998 116.823 67.9639C116.688 67.828 116.58 67.6658 116.508 67.4869C116.435 67.308 116.399 67.1162 116.401 66.9229C116.4 66.7291 116.437 66.537 116.51 66.3577C116.583 66.1784 116.689 66.0153 116.824 65.8779C117.106 65.6154 117.474 65.4697 117.857 65.4697C118.24 65.4697 118.608 65.6154 118.89 65.8779C119.159 66.1537 119.311 66.5262 119.311 66.9143C119.311 67.3025 119.159 67.6749 118.89 67.9508C118.611 68.2206 118.242 68.3736 117.857 68.379Z" fill="#101417"/>
<path d="M117.849 90.2026C117.561 90.2039 117.279 90.1187 117.039 89.9578C116.799 89.7969 116.612 89.5677 116.502 89.2992C116.391 89.0307 116.362 88.7352 116.419 88.4502C116.475 88.1652 116.615 87.9036 116.819 87.6987C117.1 87.4378 117.467 87.2929 117.849 87.2929C118.231 87.2929 118.598 87.4378 118.879 87.6987C119.149 87.9759 119.3 88.349 119.3 88.7378C119.3 89.1265 119.149 89.4996 118.879 89.7768C118.601 90.045 118.233 90.1972 117.849 90.2026Z" fill="#101417"/>
<path d="M117.856 112.026C117.664 112.028 117.474 111.992 117.297 111.919C117.119 111.847 116.958 111.739 116.822 111.603C116.687 111.467 116.58 111.305 116.507 111.127C116.435 110.949 116.399 110.758 116.401 110.566C116.401 110.376 116.438 110.189 116.51 110.014C116.583 109.839 116.69 109.68 116.824 109.547C117.027 109.343 117.285 109.203 117.566 109.145C117.848 109.088 118.14 109.115 118.406 109.224C118.672 109.333 118.9 109.519 119.061 109.758C119.222 109.996 119.309 110.277 119.311 110.566C119.312 110.758 119.275 110.948 119.202 111.126C119.13 111.304 119.023 111.465 118.888 111.601C118.61 111.869 118.241 112.02 117.856 112.026Z" fill="#101417"/>
<path d="M117.856 133.849C117.467 133.844 117.096 133.685 116.824 133.406C116.69 133.273 116.583 133.114 116.51 132.938C116.438 132.763 116.401 132.574 116.401 132.384C116.4 132.192 116.437 132.001 116.51 131.822C116.582 131.644 116.689 131.482 116.824 131.345C117.105 131.084 117.474 130.939 117.856 130.939C118.238 130.939 118.607 131.084 118.888 131.345C119.023 131.482 119.13 131.644 119.202 131.822C119.275 132.001 119.312 132.192 119.311 132.384C119.311 132.574 119.274 132.763 119.202 132.938C119.129 133.114 119.022 133.273 118.888 133.406C118.611 133.679 118.243 133.837 117.856 133.849Z" fill="#101417"/>
<path d="M146.954 2.90972C146.761 2.91127 146.57 2.87275 146.392 2.79655C146.215 2.72036 146.055 2.60813 145.922 2.46686C145.786 2.33453 145.679 2.17561 145.606 1.99987C145.533 1.82412 145.497 1.63524 145.499 1.44486C145.499 1.25218 145.536 1.06122 145.608 0.882923C145.681 0.704631 145.787 0.542512 145.922 0.405842C146.204 0.144887 146.572 0 146.954 0C147.337 0 147.705 0.144887 147.986 0.405842C148.121 0.542512 148.228 0.704631 148.3 0.882923C148.373 1.06122 148.41 1.25218 148.409 1.44486C148.41 1.63496 148.372 1.82325 148.3 1.99872C148.227 2.1742 148.121 2.33334 147.986 2.46686C147.852 2.60654 147.692 2.71769 147.515 2.79377C147.338 2.86985 147.147 2.90929 146.954 2.90972Z" fill="#101417"/>
<path d="M146.954 24.733C146.763 24.7339 146.573 24.6967 146.396 24.6236C146.219 24.5506 146.058 24.443 145.922 24.3072C145.653 24.0291 145.501 23.6566 145.499 23.2682C145.498 23.0755 145.535 22.8845 145.608 22.7062C145.68 22.5279 145.787 22.3658 145.922 22.2291C146.203 21.9682 146.572 21.8233 146.954 21.8233C147.336 21.8233 147.705 21.9682 147.986 22.2291C148.121 22.3658 148.228 22.5279 148.3 22.7062C148.373 22.8845 148.41 23.0755 148.409 23.2682C148.407 23.6566 148.255 24.0291 147.986 24.3072C147.708 24.5754 147.339 24.7276 146.954 24.733Z" fill="#101417"/>
<path d="M146.968 46.5562C146.681 46.5542 146.402 46.4673 146.164 46.3063C145.926 46.1453 145.741 45.9173 145.63 45.6508C145.52 45.3842 145.489 45.0908 145.543 44.807C145.597 44.5233 145.732 44.2616 145.932 44.0547C146.214 43.7922 146.584 43.6465 146.968 43.6465C147.352 43.6465 147.722 43.7922 148.004 44.0547C148.275 44.3306 148.427 44.7031 148.427 45.0913C148.427 45.4794 148.275 45.852 148.004 46.1279C147.725 46.3977 147.355 46.5508 146.968 46.5562Z" fill="#101417"/>
<path d="M146.955 68.379C146.764 68.3836 146.574 68.3492 146.397 68.2779C146.219 68.2066 146.057 68.0998 145.922 67.9638C145.786 67.8279 145.678 67.6657 145.606 67.4868C145.533 67.308 145.497 67.1161 145.499 66.9228C145.498 66.729 145.535 66.537 145.608 66.3577C145.681 66.1783 145.787 66.0153 145.922 65.8778C146.204 65.6153 146.572 65.4696 146.955 65.4696C147.338 65.4696 147.706 65.6153 147.988 65.8778C148.258 66.1536 148.409 66.5261 148.409 66.9143C148.409 67.3024 148.258 67.6748 147.988 67.9507C147.709 68.2205 147.34 68.3735 146.955 68.379Z" fill="#101417"/>
<path d="M146.947 90.2026C146.659 90.2039 146.377 90.1187 146.137 89.9578C145.897 89.7969 145.71 89.5677 145.6 89.2992C145.489 89.0307 145.46 88.7352 145.517 88.4502C145.573 88.1652 145.713 87.9036 145.917 87.6987C146.198 87.4378 146.565 87.2929 146.947 87.2929C147.329 87.2929 147.696 87.4378 147.977 87.6987C148.247 87.9759 148.398 88.349 148.398 88.7378C148.398 89.1265 148.247 89.4996 147.977 89.7768C147.699 90.045 147.331 90.1972 146.947 90.2026Z" fill="#101417"/>
<path d="M146.954 112.026C146.762 112.028 146.572 111.992 146.395 111.919C146.217 111.847 146.056 111.739 145.92 111.603C145.785 111.467 145.678 111.305 145.605 111.127C145.533 110.949 145.497 110.758 145.499 110.566C145.499 110.376 145.536 110.189 145.609 110.014C145.681 109.839 145.788 109.68 145.922 109.547C146.125 109.343 146.383 109.203 146.664 109.145C146.946 109.088 147.238 109.115 147.504 109.224C147.77 109.333 147.998 109.519 148.159 109.758C148.32 109.996 148.407 110.277 148.409 110.566C148.41 110.758 148.373 110.948 148.3 111.126C148.228 111.304 148.121 111.465 147.986 111.601C147.708 111.869 147.339 112.02 146.954 112.026Z" fill="#101417"/>
<path d="M146.954 133.849C146.565 133.844 146.195 133.685 145.922 133.406C145.788 133.273 145.681 133.113 145.608 132.938C145.536 132.763 145.499 132.574 145.499 132.384C145.498 132.191 145.535 132 145.608 131.822C145.68 131.644 145.787 131.482 145.922 131.345C146.203 131.084 146.572 130.939 146.954 130.939C147.336 130.939 147.705 131.084 147.986 131.345C148.121 131.482 148.228 131.644 148.3 131.822C148.373 132 148.41 132.191 148.409 132.384C148.409 132.574 148.372 132.763 148.3 132.938C148.227 133.113 148.12 133.273 147.986 133.406C147.71 133.679 147.341 133.837 146.954 133.849Z" fill="#101417"/>
</svg>
