<svg width="67" height="79" viewBox="0 0 67 79" fill="none" xmlns="http://www.w3.org/2000/svg">
<path d="M87.1113 25.1153C87.0762 24.8525 86.9505 24.6107 86.756 24.4317C86.5616 24.2527 86.3105 24.1477 86.0462 24.1349C74.7076 22.7875 61.3482 25.859 50.5627 29.446C40.4907 32.5246 31.174 37.7094 23.2292 44.6571C9.0681 57.6449 5.13835 76.9264 21.013 90.3407C35.2722 102.358 56.258 98.923 68.0295 85.0612C81.4293 69.2967 91.0892 45.7943 87.1113 25.1153ZM22.3478 88.4266C13.3591 80.8231 9.24615 68.2244 15.5856 57.464C20.2798 49.4839 28.415 43.3497 36.3395 38.8615C43.9208 34.6982 52.0418 31.6195 60.4647 29.7153C68.3852 27.8136 76.6869 27.6029 84.5548 25.7254C92.0517 55.8954 57.1528 117.845 22.4021 88.4602L22.3478 88.4266Z" fill="white"/>
</svg>
