<svg width="96" height="73" viewBox="0 0 96 73" fill="none" xmlns="http://www.w3.org/2000/svg">
<path d="M1.01668 13C0.819799 12.9986 0.627663 12.9389 0.464177 12.8282C0.300691 12.7176 0.173065 12.5609 0.0971618 12.3777C0.0212589 12.1945 0.000427371 11.9928 0.0372651 11.7977C0.0741029 11.6027 0.166986 11.4228 0.304355 11.2806C0.498433 11.1002 0.752726 11 1.01668 11C1.28064 11 1.53492 11.1002 1.729 11.2806C1.91512 11.4702 2.01953 11.7263 2.01953 11.9931C2.01953 12.2599 1.91512 12.5159 1.729 12.7056C1.53703 12.891 1.2825 12.9963 1.01668 13Z" fill="#F3D51D"/>
<path d="M1.00855 27.9997C0.877271 28.0029 0.746696 27.9793 0.624637 27.9302C0.502578 27.8812 0.391538 27.8078 0.298138 27.7144C0.204738 27.621 0.130895 27.5094 0.0810254 27.3865C0.0311559 27.2636 0.00628433 27.1317 0.00788514 26.9988C0.00730753 26.8656 0.0326983 26.7336 0.0826144 26.6104C0.132531 26.4871 0.205991 26.375 0.298777 26.2805C0.492161 26.1001 0.745543 26 1.00855 26C1.27157 26 1.52494 26.1001 1.71832 26.2805C1.90378 26.4701 2.00781 26.7262 2.00781 26.993C2.00781 27.2597 1.90378 27.5157 1.71832 27.7053C1.52704 27.8908 1.27342 27.996 1.00855 27.9997Z" fill="#F3D51D"/>
<path d="M1.00239 43C0.80437 43.0009 0.610565 42.9423 0.445637 42.8317C0.280709 42.7211 0.152112 42.5636 0.076214 42.379C0.00031622 42.1945 -0.0194549 41.9914 0.0194185 41.7955C0.058292 41.5996 0.154055 41.4198 0.294516 41.279C0.487381 41.0996 0.740085 41 1.00239 41C1.2647 41 1.51739 41.0996 1.71026 41.279C1.89594 41.4695 2 41.7259 2 41.9931C2 42.2603 1.89594 42.5168 1.71026 42.7073C1.51949 42.8917 1.26655 42.9963 1.00239 43Z" fill="#F3D51D"/>
<path d="M1.00785 57.9999C0.876097 58.0015 0.745365 57.9766 0.623339 57.9267C0.501313 57.8768 0.39045 57.803 0.297283 57.7095C0.204115 57.616 0.13052 57.5047 0.0808197 57.3822C0.0311189 57.2598 0.0063224 57.1286 0.00788173 56.9964C0.00755972 56.8661 0.0331005 56.7371 0.0830108 56.6169C0.132921 56.4967 0.2062 56.3877 0.298569 56.2962C0.437732 56.1556 0.615236 56.0596 0.808709 56.0201C1.00218 55.9806 1.20297 55.9995 1.38575 56.0744C1.56854 56.1493 1.72516 56.2768 1.83585 56.4409C1.94655 56.6049 2.00638 56.7982 2.0078 56.9964C2.00838 57.1284 1.98301 57.2592 1.93313 57.3813C1.88325 57.5035 1.80984 57.6146 1.71712 57.7082C1.52596 57.892 1.27253 57.9962 1.00785 57.9999Z" fill="#F3D51D"/>
<path d="M1.00782 73C0.740745 72.9968 0.48577 72.8874 0.298518 72.6956C0.206147 72.6038 0.132865 72.4944 0.0829535 72.3738C0.0330417 72.2532 0.00750011 72.1238 0.00782213 71.9931C0.00724491 71.8607 0.0326186 71.7294 0.082501 71.6069C0.132384 71.4843 0.205795 71.3729 0.298518 71.2789C0.491771 71.0996 0.744983 71 1.00782 71C1.27065 71 1.52385 71.0996 1.71711 71.2789C1.80983 71.3729 1.88324 71.4843 1.93312 71.6069C1.98301 71.7294 2.00838 71.8607 2.0078 71.9931C2.00812 72.1238 1.98259 72.2532 1.93268 72.3738C1.88277 72.4944 1.80948 72.6038 1.71711 72.6956C1.52711 72.8833 1.27386 72.992 1.00782 73Z" fill="#F3D51D"/>
<path d="M21.0167 13C20.8198 12.9986 20.6277 12.9389 20.4642 12.8282C20.3007 12.7176 20.1731 12.5609 20.0972 12.3777C20.0213 12.1945 20.0004 11.9928 20.0373 11.7977C20.0741 11.6027 20.167 11.4228 20.3044 11.2806C20.4984 11.1002 20.7527 11 21.0167 11C21.2806 11 21.5349 11.1002 21.729 11.2806C21.9151 11.4702 22.0195 11.7263 22.0195 11.9931C22.0195 12.2599 21.9151 12.5159 21.729 12.7056C21.537 12.891 21.2825 12.9963 21.0167 13Z" fill="#F3D51D"/>
<path d="M21.0086 27.9997C20.8773 28.0029 20.7467 27.9793 20.6246 27.9302C20.5026 27.8812 20.3915 27.8078 20.2981 27.7144C20.2047 27.621 20.1309 27.5094 20.081 27.3865C20.0312 27.2636 20.0063 27.1317 20.0079 26.9988C20.0073 26.8656 20.0327 26.7336 20.0826 26.6104C20.1325 26.4871 20.206 26.375 20.2988 26.2805C20.4922 26.1001 20.7455 26 21.0086 26C21.2716 26 21.5249 26.1001 21.7183 26.2805C21.9038 26.4701 22.0078 26.7262 22.0078 26.993C22.0078 27.2597 21.9038 27.5157 21.7183 27.7053C21.527 27.8908 21.2734 27.996 21.0086 27.9997Z" fill="#F3D51D"/>
<path d="M21.0024 43C20.8044 43.0009 20.6106 42.9423 20.4456 42.8317C20.2807 42.7211 20.1521 42.5636 20.0762 42.379C20.0003 42.1945 19.9805 41.9914 20.0194 41.7955C20.0583 41.5996 20.1541 41.4198 20.2945 41.279C20.4874 41.0996 20.7401 41 21.0024 41C21.2647 41 21.5174 41.0996 21.7103 41.279C21.8959 41.4695 22 41.7259 22 41.9931C22 42.2603 21.8959 42.5168 21.7103 42.7073C21.5195 42.8917 21.2666 42.9963 21.0024 43Z" fill="#F3D51D"/>
<path d="M21.0078 57.9999C20.8761 58.0015 20.7454 57.9766 20.6233 57.9267C20.5013 57.8768 20.3905 57.803 20.2973 57.7095C20.2041 57.616 20.1305 57.5047 20.0808 57.3822C20.0311 57.2598 20.0063 57.1286 20.0079 56.9964C20.0076 56.8661 20.0331 56.7371 20.083 56.6169C20.1329 56.4967 20.2062 56.3877 20.2986 56.2962C20.4377 56.1556 20.6152 56.0596 20.8087 56.0201C21.0022 55.9806 21.203 55.9995 21.3858 56.0744C21.5685 56.1493 21.7252 56.2768 21.8359 56.4409C21.9466 56.6049 22.0064 56.7982 22.0078 56.9964C22.0084 57.1284 21.983 57.2592 21.9331 57.3813C21.8832 57.5035 21.8098 57.6146 21.7171 57.7082C21.526 57.892 21.2725 57.9962 21.0078 57.9999Z" fill="#F3D51D"/>
<path d="M21.0078 73C20.7407 72.9968 20.4858 72.8874 20.2985 72.6956C20.2061 72.6038 20.1329 72.4944 20.083 72.3738C20.033 72.2532 20.0075 72.1238 20.0078 71.9931C20.0072 71.8607 20.0326 71.7294 20.0825 71.6069C20.1324 71.4843 20.2058 71.3729 20.2985 71.2789C20.4918 71.0996 20.745 71 21.0078 71C21.2707 71 21.5239 71.0996 21.7171 71.2789C21.8098 71.3729 21.8832 71.4843 21.9331 71.6069C21.983 71.7294 22.0084 71.8607 22.0078 71.9931C22.0081 72.1238 21.9826 72.2532 21.9327 72.3738C21.8828 72.4944 21.8095 72.6038 21.7171 72.6956C21.5271 72.8833 21.2739 72.992 21.0078 73Z" fill="#F3D51D"/>
<path d="M41.0167 13C40.8198 12.9986 40.6277 12.9389 40.4642 12.8282C40.3007 12.7176 40.1731 12.5609 40.0972 12.3777C40.0213 12.1945 40.0004 11.9928 40.0373 11.7977C40.0741 11.6027 40.167 11.4228 40.3044 11.2806C40.4984 11.1002 40.7527 11 41.0167 11C41.2806 11 41.5349 11.1002 41.729 11.2806C41.9151 11.4702 42.0195 11.7263 42.0195 11.9931C42.0195 12.2599 41.9151 12.5159 41.729 12.7056C41.537 12.891 41.2825 12.9963 41.0167 13Z" fill="#F3D51D"/>
<path d="M41.0086 27.9997C40.8773 28.0029 40.7467 27.9793 40.6246 27.9302C40.5026 27.8812 40.3915 27.8078 40.2981 27.7144C40.2047 27.621 40.1309 27.5094 40.081 27.3865C40.0312 27.2636 40.0063 27.1317 40.0079 26.9988C40.0073 26.8656 40.0327 26.7336 40.0826 26.6104C40.1325 26.4871 40.206 26.375 40.2988 26.2805C40.4922 26.1001 40.7455 26 41.0086 26C41.2716 26 41.5249 26.1001 41.7183 26.2805C41.9038 26.4701 42.0078 26.7262 42.0078 26.993C42.0078 27.2597 41.9038 27.5157 41.7183 27.7053C41.527 27.8908 41.2734 27.996 41.0086 27.9997Z" fill="#F3D51D"/>
<path d="M41.0024 43C40.8044 43.0009 40.6106 42.9423 40.4456 42.8317C40.2807 42.7211 40.1521 42.5636 40.0762 42.379C40.0003 42.1945 39.9805 41.9914 40.0194 41.7955C40.0583 41.5996 40.1541 41.4198 40.2945 41.279C40.4874 41.0996 40.7401 41 41.0024 41C41.2647 41 41.5174 41.0996 41.7103 41.279C41.8959 41.4695 42 41.7259 42 41.9931C42 42.2603 41.8959 42.5168 41.7103 42.7073C41.5195 42.8917 41.2666 42.9963 41.0024 43Z" fill="#F3D51D"/>
<path d="M41.0078 57.9999C40.8761 58.0015 40.7454 57.9766 40.6233 57.9267C40.5013 57.8768 40.3905 57.803 40.2973 57.7095C40.2041 57.616 40.1305 57.5047 40.0808 57.3822C40.0311 57.2598 40.0063 57.1286 40.0079 56.9964C40.0076 56.8661 40.0331 56.7371 40.083 56.6169C40.1329 56.4967 40.2062 56.3877 40.2986 56.2962C40.4377 56.1556 40.6152 56.0596 40.8087 56.0201C41.0022 55.9806 41.203 55.9995 41.3858 56.0744C41.5685 56.1493 41.7252 56.2768 41.8359 56.4409C41.9466 56.6049 42.0064 56.7982 42.0078 56.9964C42.0084 57.1284 41.983 57.2592 41.9331 57.3813C41.8832 57.5035 41.8098 57.6146 41.7171 57.7082C41.526 57.892 41.2725 57.9962 41.0078 57.9999Z" fill="#F3D51D"/>
<path d="M41.0078 73C40.7407 72.9968 40.4858 72.8874 40.2985 72.6956C40.2061 72.6038 40.1329 72.4944 40.083 72.3738C40.033 72.2532 40.0075 72.1238 40.0078 71.9931C40.0072 71.8607 40.0326 71.7294 40.0825 71.6069C40.1324 71.4843 40.2058 71.3729 40.2985 71.2789C40.4918 71.0996 40.745 71 41.0078 71C41.2707 71 41.5239 71.0996 41.7171 71.2789C41.8098 71.3729 41.8832 71.4843 41.9331 71.6069C41.983 71.7294 42.0084 71.8607 42.0078 71.9931C42.0081 72.1238 41.9826 72.2532 41.9327 72.3738C41.8828 72.4944 41.8095 72.6038 41.7171 72.6956C41.5271 72.8833 41.2739 72.992 41.0078 73Z" fill="#F3D51D"/>
<path d="M61.0167 13C60.8198 12.9986 60.6277 12.9389 60.4642 12.8282C60.3007 12.7176 60.1731 12.5609 60.0972 12.3777C60.0213 12.1945 60.0004 11.9928 60.0373 11.7977C60.0741 11.6027 60.167 11.4228 60.3044 11.2806C60.4984 11.1002 60.7527 11 61.0167 11C61.2806 11 61.5349 11.1002 61.729 11.2806C61.9151 11.4702 62.0195 11.7263 62.0195 11.9931C62.0195 12.2599 61.9151 12.5159 61.729 12.7056C61.537 12.891 61.2825 12.9963 61.0167 13Z" fill="#F3D51D"/>
<path d="M61.0086 27.9997C60.8773 28.0029 60.7467 27.9793 60.6246 27.9302C60.5026 27.8812 60.3915 27.8078 60.2981 27.7144C60.2047 27.621 60.1309 27.5094 60.081 27.3865C60.0312 27.2636 60.0063 27.1317 60.0079 26.9988C60.0073 26.8656 60.0327 26.7336 60.0826 26.6104C60.1325 26.4871 60.206 26.375 60.2988 26.2805C60.4922 26.1001 60.7455 26 61.0086 26C61.2716 26 61.5249 26.1001 61.7183 26.2805C61.9038 26.4701 62.0078 26.7262 62.0078 26.993C62.0078 27.2597 61.9038 27.5157 61.7183 27.7053C61.527 27.8908 61.2734 27.996 61.0086 27.9997Z" fill="#F3D51D"/>
<path d="M61.0024 43C60.8044 43.0009 60.6106 42.9423 60.4456 42.8317C60.2807 42.7211 60.1521 42.5636 60.0762 42.379C60.0003 42.1945 59.9805 41.9914 60.0194 41.7955C60.0583 41.5996 60.1541 41.4198 60.2945 41.279C60.4874 41.0996 60.7401 41 61.0024 41C61.2647 41 61.5174 41.0996 61.7103 41.279C61.8959 41.4695 62 41.7259 62 41.9931C62 42.2603 61.8959 42.5168 61.7103 42.7073C61.5195 42.8917 61.2666 42.9963 61.0024 43Z" fill="#F3D51D"/>
<path d="M61.0078 57.9999C60.8761 58.0015 60.7454 57.9766 60.6233 57.9267C60.5013 57.8768 60.3905 57.803 60.2973 57.7095C60.2041 57.616 60.1305 57.5047 60.0808 57.3822C60.0311 57.2598 60.0063 57.1286 60.0079 56.9964C60.0076 56.8661 60.0331 56.7371 60.083 56.6169C60.1329 56.4967 60.2062 56.3877 60.2986 56.2962C60.4377 56.1556 60.6152 56.0596 60.8087 56.0201C61.0022 55.9806 61.203 55.9995 61.3858 56.0744C61.5685 56.1493 61.7252 56.2768 61.8359 56.4409C61.9466 56.6049 62.0064 56.7982 62.0078 56.9964C62.0084 57.1284 61.983 57.2592 61.9331 57.3813C61.8832 57.5035 61.8098 57.6146 61.7171 57.7082C61.526 57.892 61.2725 57.9962 61.0078 57.9999Z" fill="#F3D51D"/>
<path d="M61.0078 73C60.7407 72.9968 60.4858 72.8874 60.2985 72.6956C60.2061 72.6038 60.1329 72.4944 60.083 72.3738C60.033 72.2532 60.0075 72.1238 60.0078 71.9931C60.0072 71.8607 60.0326 71.7294 60.0825 71.6069C60.1324 71.4843 60.2058 71.3729 60.2985 71.2789C60.4918 71.0996 60.745 71 61.0078 71C61.2707 71 61.5239 71.0996 61.7171 71.2789C61.8098 71.3729 61.8832 71.4843 61.9331 71.6069C61.983 71.7294 62.0084 71.8607 62.0078 71.9931C62.0081 72.1238 61.9826 72.2532 61.9327 72.3738C61.8828 72.4944 61.8095 72.6038 61.7171 72.6956C61.5271 72.8833 61.2739 72.992 61.0078 73Z" fill="#F3D51D"/>
<path d="M81.0167 13C80.8198 12.9986 80.6277 12.9389 80.4642 12.8282C80.3007 12.7176 80.1731 12.5609 80.0972 12.3777C80.0213 12.1945 80.0004 11.9928 80.0373 11.7977C80.0741 11.6027 80.167 11.4228 80.3044 11.2806C80.4984 11.1002 80.7527 11 81.0167 11C81.2806 11 81.5349 11.1002 81.729 11.2806C81.9151 11.4702 82.0195 11.7263 82.0195 11.9931C82.0195 12.2599 81.9151 12.5159 81.729 12.7056C81.537 12.891 81.2825 12.9963 81.0167 13Z" fill="#F3D51D"/>
<path d="M81.0086 27.9997C80.8773 28.0029 80.7467 27.9793 80.6246 27.9302C80.5026 27.8812 80.3915 27.8078 80.2981 27.7144C80.2047 27.621 80.1309 27.5094 80.081 27.3865C80.0312 27.2636 80.0063 27.1317 80.0079 26.9988C80.0073 26.8656 80.0327 26.7336 80.0826 26.6104C80.1325 26.4871 80.206 26.375 80.2988 26.2805C80.4922 26.1001 80.7455 26 81.0086 26C81.2716 26 81.5249 26.1001 81.7183 26.2805C81.9038 26.4701 82.0078 26.7262 82.0078 26.993C82.0078 27.2597 81.9038 27.5157 81.7183 27.7053C81.527 27.8908 81.2734 27.996 81.0086 27.9997Z" fill="#F3D51D"/>
<path d="M81.0024 43C80.8044 43.0009 80.6106 42.9423 80.4456 42.8317C80.2807 42.7211 80.1521 42.5636 80.0762 42.379C80.0003 42.1945 79.9805 41.9914 80.0194 41.7955C80.0583 41.5996 80.1541 41.4198 80.2945 41.279C80.4874 41.0996 80.7401 41 81.0024 41C81.2647 41 81.5174 41.0996 81.7103 41.279C81.8959 41.4695 82 41.7259 82 41.9931C82 42.2603 81.8959 42.5168 81.7103 42.7073C81.5195 42.8917 81.2666 42.9963 81.0024 43Z" fill="#F3D51D"/>
<path d="M81.0078 57.9999C80.8761 58.0015 80.7454 57.9766 80.6233 57.9267C80.5013 57.8768 80.3905 57.803 80.2973 57.7095C80.2041 57.616 80.1305 57.5047 80.0808 57.3822C80.0311 57.2598 80.0063 57.1286 80.0079 56.9964C80.0076 56.8661 80.0331 56.7371 80.083 56.6169C80.1329 56.4967 80.2062 56.3877 80.2986 56.2962C80.4377 56.1556 80.6152 56.0596 80.8087 56.0201C81.0022 55.9806 81.203 55.9995 81.3858 56.0744C81.5685 56.1493 81.7252 56.2768 81.8359 56.4409C81.9466 56.6049 82.0064 56.7982 82.0078 56.9964C82.0084 57.1284 81.983 57.2592 81.9331 57.3813C81.8832 57.5035 81.8098 57.6146 81.7171 57.7082C81.526 57.892 81.2725 57.9962 81.0078 57.9999Z" fill="#F3D51D"/>
<path d="M81.0078 73C80.7407 72.9968 80.4858 72.8874 80.2985 72.6956C80.2061 72.6038 80.1329 72.4944 80.083 72.3738C80.033 72.2532 80.0075 72.1238 80.0078 71.9931C80.0072 71.8607 80.0326 71.7294 80.0825 71.6069C80.1324 71.4843 80.2058 71.3729 80.2985 71.2789C80.4918 71.0996 80.745 71 81.0078 71C81.2707 71 81.5239 71.0996 81.7171 71.2789C81.8098 71.3729 81.8832 71.4843 81.9331 71.6069C81.983 71.7294 82.0084 71.8607 82.0078 71.9931C82.0081 72.1238 81.9826 72.2532 81.9327 72.3738C81.8828 72.4944 81.8095 72.6038 81.7171 72.6956C81.5271 72.8833 81.2739 72.992 81.0078 73Z" fill="#F3D51D"/>
</svg>
