<svg width="240" height="130" viewBox="0 0 240 130" fill="none" xmlns="http://www.w3.org/2000/svg">
<path d="M2.37261 23.5664C2.06376 23.5738 1.75659 23.5183 1.46945 23.4029C1.1823 23.2876 0.921081 23.1149 0.70136 22.8951C0.481638 22.6753 0.307922 22.413 0.190604 22.1238C0.0732868 21.8346 0.0147766 21.5244 0.0185425 21.2118C0.0171836 20.8984 0.0769152 20.5879 0.194342 20.298C0.31177 20.008 0.484585 19.7443 0.702863 19.522C1.1578 19.0976 1.75388 18.8621 2.37261 18.8621C2.99134 18.8621 3.5874 19.0976 4.04233 19.522C4.47862 19.9681 4.72335 20.5704 4.72335 21.198C4.72335 21.8256 4.47862 22.4278 4.04233 22.8739C3.59233 23.3101 2.99571 23.5576 2.37261 23.5664Z" fill="#F3D51D"/>
<path d="M2.35812 58.8544C1.89227 58.8564 1.43635 58.7187 1.04836 58.4585C0.660365 58.1984 0.357842 57.8277 0.179293 57.3936C0.000743905 56.9595 -0.0457674 56.4816 0.045682 56.0208C0.137131 55.5599 0.362414 55.1369 0.692846 54.8057C1.14656 54.3837 1.74104 54.1494 2.35812 54.1494C2.97519 54.1494 3.56965 54.3837 4.02337 54.8057C4.46019 55.2538 4.70498 55.8572 4.70498 56.4857C4.70498 57.1143 4.46019 57.7177 4.02337 58.1658C3.57457 58.5996 2.97955 58.8456 2.35812 58.8544Z" fill="#F3D51D"/>
<path d="M2.37094 94.1416C2.061 94.1453 1.75346 94.0867 1.46639 93.9694C1.17933 93.852 0.918524 93.6783 0.699348 93.4583C0.480172 93.2383 0.307041 92.9766 0.19012 92.6885C0.0731997 92.4004 0.0148661 92.0917 0.0185344 91.7807C0.0177769 91.4743 0.0778613 91.1708 0.195275 90.888C0.312689 90.6052 0.485077 90.3487 0.702374 90.1335C1.02975 89.8029 1.44733 89.5769 1.90247 89.4841C2.35762 89.3912 2.82996 89.4357 3.25997 89.6118C3.68998 89.788 4.0584 90.0879 4.31882 90.4739C4.57924 90.8599 4.71998 91.3146 4.72333 91.7807C4.72469 92.0912 4.665 92.399 4.54765 92.6864C4.43031 92.9737 4.25762 93.235 4.03949 93.4553C3.58981 93.8876 2.9936 94.1328 2.37094 94.1416Z" fill="#F3D51D"/>
<path d="M2.37087 129.429C1.74259 129.422 1.14276 129.164 0.702254 128.713C0.484951 128.497 0.312557 128.24 0.19514 127.956C0.0777229 127.672 0.0176367 127.368 0.0183942 127.06C0.0170363 126.749 0.0767276 126.44 0.194076 126.152C0.311424 125.864 0.484123 125.601 0.702254 125.38C1.15688 124.958 1.75256 124.724 2.37087 124.724C2.98919 124.724 3.58484 124.958 4.03947 125.38C4.2576 125.601 4.4303 125.864 4.54765 126.152C4.665 126.44 4.72469 126.749 4.72333 127.06C4.72409 127.368 4.66402 127.672 4.54661 127.956C4.42919 128.24 4.25677 128.497 4.03947 128.713C3.59251 129.155 2.99673 129.41 2.37087 129.429Z" fill="#F3D51D"/>
<path d="M49.4224 23.5664C49.1136 23.5738 48.8064 23.5183 48.5193 23.4029C48.2321 23.2876 47.9709 23.1149 47.7512 22.8951C47.5314 22.6753 47.3577 22.413 47.2404 22.1238C47.1231 21.8346 47.0646 21.5244 47.0683 21.2118C47.067 20.8984 47.1267 20.5879 47.2441 20.298C47.3616 20.008 47.5344 19.7443 47.7527 19.522C48.2076 19.0976 48.8037 18.8621 49.4224 18.8621C50.0411 18.8621 50.6372 19.0976 51.0921 19.522C51.5284 19.9681 51.7732 20.5704 51.7732 21.198C51.7732 21.8256 51.5284 22.4278 51.0921 22.8739C50.6421 23.3101 50.0455 23.5576 49.4224 23.5664Z" fill="#F3D51D"/>
<path d="M49.4079 58.8544C48.9421 58.8564 48.4862 58.7187 48.0982 58.4585C47.7102 58.1984 47.4076 57.8277 47.2291 57.3936C47.0505 56.9595 47.004 56.4816 47.0955 56.0208C47.1869 55.5599 47.4122 55.1369 47.7427 54.8057C48.1964 54.3837 48.7908 54.1494 49.4079 54.1494C50.025 54.1494 50.6195 54.3837 51.0732 54.8057C51.51 55.2538 51.7548 55.8572 51.7548 56.4857C51.7548 57.1143 51.51 57.7177 51.0732 58.1658C50.6244 58.5996 50.0294 58.8456 49.4079 58.8544Z" fill="#F3D51D"/>
<path d="M49.4207 94.1416C49.1108 94.1453 48.8033 94.0867 48.5162 93.9694C48.2291 93.852 47.9683 93.6783 47.7492 93.4583C47.53 93.2383 47.3568 92.9766 47.2399 92.6885C47.123 92.4004 47.0647 92.0917 47.0683 91.7807C47.0676 91.4743 47.1277 91.1708 47.2451 90.888C47.3625 90.6052 47.5349 90.3487 47.7522 90.1335C48.0796 89.8029 48.4971 89.5769 48.9523 89.4841C49.4074 89.3912 49.8798 89.4357 50.3098 89.6118C50.7398 89.788 51.1082 90.0879 51.3686 90.4739C51.629 90.8599 51.7698 91.3146 51.7731 91.7807C51.7745 92.0912 51.7148 92.399 51.5975 92.6864C51.4801 92.9737 51.3074 93.235 51.0893 93.4553C50.6396 93.8876 50.0434 94.1328 49.4207 94.1416Z" fill="#F3D51D"/>
<path d="M49.4207 129.429C48.7924 129.422 48.1926 129.164 47.7521 128.713C47.5348 128.497 47.3624 128.24 47.2449 127.956C47.1275 127.672 47.0674 127.368 47.0682 127.06C47.0668 126.749 47.1265 126.44 47.2439 126.152C47.3612 125.864 47.5339 125.601 47.7521 125.38C48.2067 124.958 48.8024 124.724 49.4207 124.724C50.039 124.724 50.6346 124.958 51.0893 125.38C51.3074 125.601 51.4801 125.864 51.5975 126.152C51.7148 126.44 51.7745 126.749 51.7731 127.06C51.7739 127.368 51.7138 127.672 51.5964 127.956C51.479 128.24 51.3066 128.497 51.0893 128.713C50.6423 129.155 50.0465 129.41 49.4207 129.429Z" fill="#F3D51D"/>
<path d="M96.4722 23.5664C96.1634 23.5738 95.8562 23.5183 95.5691 23.4029C95.2819 23.2876 95.0207 23.1149 94.801 22.8951C94.5812 22.6753 94.4075 22.413 94.2902 22.1238C94.1729 21.8346 94.1144 21.5244 94.1182 21.2118C94.1168 20.8984 94.1765 20.5879 94.294 20.298C94.4114 20.008 94.5842 19.7443 94.8025 19.522C95.2574 19.0976 95.8535 18.8621 96.4722 18.8621C97.0909 18.8621 97.687 19.0976 98.1419 19.522C98.5782 19.9681 98.823 20.5704 98.823 21.198C98.823 21.8256 98.5782 22.4278 98.1419 22.8739C97.6919 23.3101 97.0953 23.5576 96.4722 23.5664Z" fill="#F3D51D"/>
<path d="M96.4577 58.8544C95.9919 58.8564 95.536 58.7187 95.148 58.4585C94.76 58.1984 94.4575 57.8277 94.2789 57.3936C94.1004 56.9595 94.0538 56.4816 94.1453 56.0208C94.2367 55.5599 94.462 55.1369 94.7925 54.8057C95.2462 54.3837 95.8407 54.1494 96.4577 54.1494C97.0748 54.1494 97.6693 54.3837 98.123 54.8057C98.5598 55.2538 98.8046 55.8572 98.8046 56.4857C98.8046 57.1143 98.5598 57.7177 98.123 58.1658C97.6742 58.5996 97.0792 58.8456 96.4577 58.8544Z" fill="#F3D51D"/>
<path d="M96.4706 94.1416C96.1606 94.1453 95.8531 94.0867 95.566 93.9694C95.2789 93.852 95.0181 93.6783 94.799 93.4583C94.5798 93.2383 94.4067 92.9766 94.2897 92.6885C94.1728 92.4004 94.1145 92.0917 94.1181 91.7807C94.1174 91.4743 94.1775 91.1708 94.2949 90.888C94.4123 90.6052 94.5847 90.3487 94.802 90.1335C95.1294 89.8029 95.5469 89.5769 96.0021 89.4841C96.4572 89.3912 96.9296 89.4357 97.3596 89.6118C97.7896 89.788 98.158 90.0879 98.4184 90.4739C98.6789 90.8599 98.8196 91.3146 98.8229 91.7807C98.8243 92.0912 98.7646 92.399 98.6473 92.6864C98.5299 92.9737 98.3572 93.235 98.1391 93.4553C97.6894 93.8876 97.0932 94.1328 96.4706 94.1416Z" fill="#F3D51D"/>
<path d="M96.4705 129.429C95.8422 129.422 95.2424 129.164 94.8019 128.713C94.5846 128.497 94.4122 128.24 94.2947 127.956C94.1773 127.672 94.1172 127.368 94.118 127.06C94.1166 126.749 94.1763 126.44 94.2937 126.152C94.411 125.864 94.5837 125.601 94.8019 125.38C95.2565 124.958 95.8522 124.724 96.4705 124.724C97.0888 124.724 97.6845 124.958 98.1391 125.38C98.3572 125.601 98.5299 125.864 98.6473 126.152C98.7646 126.44 98.8243 126.749 98.8229 127.06C98.8237 127.368 98.7636 127.672 98.6462 127.956C98.5288 128.24 98.3564 128.497 98.1391 128.713C97.6921 129.155 97.0963 129.41 96.4705 129.429Z" fill="#F3D51D"/>
<path d="M143.522 23.5664C143.213 23.5738 142.906 23.5183 142.619 23.4029C142.332 23.2876 142.07 23.1149 141.851 22.8951C141.631 22.6753 141.457 22.413 141.34 22.1238C141.223 21.8346 141.164 21.5244 141.168 21.2118C141.167 20.8984 141.226 20.5879 141.344 20.298C141.461 20.008 141.634 19.7443 141.852 19.522C142.307 19.0976 142.903 18.8621 143.522 18.8621C144.141 18.8621 144.737 19.0976 145.192 19.522C145.628 19.9681 145.873 20.5704 145.873 21.198C145.873 21.8256 145.628 22.4278 145.192 22.8739C144.742 23.3101 144.145 23.5576 143.522 23.5664Z" fill="#F3D51D"/>
<path d="M143.508 58.8544C143.042 58.8564 142.586 58.7187 142.198 58.4585C141.81 58.1984 141.507 57.8277 141.329 57.3936C141.15 56.9595 141.104 56.4816 141.195 56.0208C141.287 55.5599 141.512 55.1369 141.842 54.8057C142.296 54.3837 142.89 54.1494 143.508 54.1494C144.125 54.1494 144.719 54.3837 145.173 54.8057C145.61 55.2538 145.854 55.8572 145.854 56.4857C145.854 57.1143 145.61 57.7177 145.173 58.1658C144.724 58.5996 144.129 58.8456 143.508 58.8544Z" fill="#F3D51D"/>
<path d="M143.52 94.1416C143.21 94.1453 142.903 94.0867 142.616 93.9694C142.329 93.852 142.068 93.6783 141.849 93.4583C141.63 93.2383 141.456 92.9766 141.34 92.6885C141.223 92.4004 141.164 92.0917 141.168 91.7807C141.167 91.4743 141.227 91.1708 141.345 90.888C141.462 90.6052 141.634 90.3487 141.852 90.1335C142.179 89.8029 142.597 89.5769 143.052 89.4841C143.507 89.3912 143.979 89.4357 144.409 89.6118C144.839 89.788 145.208 90.0879 145.468 90.4739C145.729 90.8599 145.869 91.3146 145.873 91.7807C145.874 92.0912 145.814 92.399 145.697 92.6864C145.58 92.9737 145.407 93.235 145.189 93.4553C144.739 93.8876 144.143 94.1328 143.52 94.1416Z" fill="#F3D51D"/>
<path d="M143.52 129.429C142.892 129.422 142.292 129.164 141.852 128.713C141.634 128.497 141.462 128.24 141.345 127.956C141.227 127.672 141.167 127.368 141.168 127.06C141.166 126.749 141.226 126.44 141.343 126.152C141.461 125.864 141.634 125.601 141.852 125.38C142.306 124.958 142.902 124.724 143.52 124.724C144.139 124.724 144.734 124.958 145.189 125.38C145.407 125.601 145.58 125.864 145.697 126.152C145.814 126.44 145.874 126.749 145.873 127.06C145.874 127.368 145.813 127.672 145.696 127.956C145.579 128.24 145.406 128.497 145.189 128.713C144.742 129.155 144.146 129.41 143.52 129.429Z" fill="#F3D51D"/>
<path d="M190.572 23.5664C190.263 23.5738 189.956 23.5183 189.669 23.4029C189.382 23.2876 189.12 23.1149 188.901 22.8951C188.681 22.6753 188.507 22.413 188.39 22.1238C188.273 21.8346 188.214 21.5244 188.218 21.2118C188.217 20.8984 188.276 20.5879 188.394 20.298C188.511 20.008 188.684 19.7443 188.902 19.522C189.357 19.0976 189.953 18.8621 190.572 18.8621C191.191 18.8621 191.787 19.0976 192.242 19.522C192.678 19.9681 192.923 20.5704 192.923 21.198C192.923 21.8256 192.678 22.4278 192.242 22.8739C191.792 23.3101 191.195 23.5576 190.572 23.5664Z" fill="#F3D51D"/>
<path d="M190.557 58.8544C190.092 58.8564 189.636 58.7187 189.248 58.4585C188.86 58.1984 188.557 57.8277 188.379 57.3936C188.2 56.9595 188.154 56.4816 188.245 56.0208C188.336 55.5599 188.562 55.1369 188.892 54.8057C189.346 54.3837 189.94 54.1494 190.557 54.1494C191.175 54.1494 191.769 54.3837 192.223 54.8057C192.66 55.2538 192.904 55.8572 192.904 56.4857C192.904 57.1143 192.66 57.7177 192.223 58.1658C191.774 58.5996 191.179 58.8456 190.557 58.8544Z" fill="#F3D51D"/>
<path d="M190.57 94.1416C190.26 94.1453 189.953 94.0867 189.666 93.9694C189.379 93.852 189.118 93.6783 188.899 93.4583C188.68 93.2383 188.506 92.9766 188.389 92.6885C188.273 92.4004 188.214 92.0917 188.218 91.7807C188.217 91.4743 188.277 91.1708 188.395 90.888C188.512 90.6052 188.684 90.3487 188.902 90.1335C189.229 89.8029 189.647 89.5769 190.102 89.4841C190.557 89.3912 191.029 89.4357 191.459 89.6118C191.889 89.788 192.258 90.0879 192.518 90.4739C192.779 90.8599 192.919 91.3146 192.923 91.7807C192.924 92.0912 192.864 92.399 192.747 92.6864C192.63 92.9737 192.457 93.235 192.239 93.4553C191.789 93.8876 191.193 94.1328 190.57 94.1416Z" fill="#F3D51D"/>
<path d="M190.57 129.429C189.942 129.422 189.342 129.164 188.902 128.713C188.684 128.497 188.512 128.24 188.394 127.956C188.277 127.672 188.217 127.368 188.218 127.06C188.216 126.749 188.276 126.44 188.393 126.152C188.511 125.864 188.683 125.601 188.902 125.38C189.356 124.958 189.952 124.724 190.57 124.724C191.189 124.724 191.784 124.958 192.239 125.38C192.457 125.601 192.63 125.864 192.747 126.152C192.864 126.44 192.924 126.749 192.923 127.06C192.923 127.368 192.863 127.672 192.746 127.956C192.629 128.24 192.456 128.497 192.239 128.713C191.792 129.155 191.196 129.41 190.57 129.429Z" fill="#F3D51D"/>
<path d="M237.622 23.5664C237.313 23.5738 237.006 23.5183 236.719 23.4029C236.431 23.2876 236.17 23.1149 235.95 22.8951C235.731 22.6753 235.557 22.413 235.44 22.1238C235.322 21.8346 235.264 21.5244 235.268 21.2118C235.266 20.8984 235.326 20.5879 235.443 20.298C235.561 20.008 235.734 19.7443 235.952 19.522C236.407 19.0976 237.003 18.8621 237.622 18.8621C238.24 18.8621 238.836 19.0976 239.291 19.522C239.728 19.9681 239.972 20.5704 239.972 21.198C239.972 21.8256 239.728 22.4278 239.291 22.8739C238.841 23.3101 238.245 23.5576 237.622 23.5664Z" fill="#F3D51D"/>
<path d="M237.607 58.8544C237.141 58.8564 236.685 58.7187 236.297 58.4585C235.909 58.1984 235.607 57.8277 235.428 57.3936C235.25 56.9595 235.203 56.4816 235.295 56.0208C235.386 55.5599 235.611 55.1369 235.942 54.8057C236.396 54.3837 236.99 54.1494 237.607 54.1494C238.224 54.1494 238.819 54.3837 239.272 54.8057C239.709 55.2538 239.954 55.8572 239.954 56.4857C239.954 57.1143 239.709 57.7177 239.272 58.1658C238.824 58.5996 238.229 58.8456 237.607 58.8544Z" fill="#F3D51D"/>
<path d="M237.62 94.1416C237.31 94.1453 237.003 94.0867 236.715 93.9694C236.428 93.852 236.168 93.6783 235.948 93.4583C235.729 93.2383 235.556 92.9766 235.439 92.6885C235.322 92.4004 235.264 92.0917 235.268 91.7807C235.267 91.4743 235.327 91.1708 235.444 90.888C235.562 90.6052 235.734 90.3487 235.951 90.1335C236.279 89.8029 236.696 89.5769 237.152 89.4841C237.607 89.3912 238.079 89.4357 238.509 89.6118C238.939 89.788 239.307 90.0879 239.568 90.4739C239.828 90.8599 239.969 91.3146 239.972 91.7807C239.974 92.0912 239.914 92.399 239.797 92.6864C239.679 92.9737 239.507 93.235 239.289 93.4553C238.839 93.8876 238.243 94.1328 237.62 94.1416Z" fill="#F3D51D"/>
<path d="M237.62 129.429C236.992 129.422 236.392 129.164 235.951 128.713C235.734 128.497 235.562 128.24 235.444 127.956C235.327 127.672 235.267 127.368 235.267 127.06C235.266 126.749 235.326 126.44 235.443 126.152C235.561 125.864 235.733 125.601 235.951 125.38C236.406 124.958 237.002 124.724 237.62 124.724C238.238 124.724 238.834 124.958 239.289 125.38C239.507 125.601 239.679 125.864 239.797 126.152C239.914 126.44 239.974 126.749 239.972 127.06C239.973 127.368 239.913 127.672 239.796 127.956C239.678 128.24 239.506 128.497 239.289 128.713C238.842 129.155 238.246 129.41 237.62 129.429Z" fill="#F3D51D"/>
</svg>
