<svg width="204" height="31" viewBox="0 0 204 31" fill="none" xmlns="http://www.w3.org/2000/svg">
<path d="M203.033 17.3046C202.048 17.11 201.051 17.0657 200.058 16.9713C199.065 16.8769 198.082 16.7631 197.105 16.5792C194.92 16.174 192.744 15.7594 190.566 15.3749C186.362 14.6374 182.144 13.9795 177.914 13.4818C174.035 13.0238 170.149 12.646 166.258 12.3483C165.246 12.2726 164.243 12.1976 163.232 12.122C159.374 11.8335 155.508 11.6552 151.633 11.4863C142.584 11.1019 133.535 10.7174 124.48 10.534C115.631 10.3559 106.78 10.2179 97.9283 10.1908C93.5759 10.1776 89.2242 10.1545 84.8658 10.2215C80.1659 10.2428 75.4613 10.2134 70.7491 10.2842L41.613 10.725C33.1891 10.8608 24.7539 11.3786 16.3391 12.2001C10.9123 12.7212 5.48202 13.4033 0.0606668 14.1968C6.14809 15.102 12.2586 15.8142 18.3921 16.3333C22.4041 16.6333 26.4121 16.8725 30.4126 16.9802C32.9934 17.0523 35.5779 17.0743 38.2083 17.0594C39.804 17.0478 41.4049 16.966 43.0036 16.9143L55.8803 16.4868C60.7721 16.3186 65.667 16.1104 70.5722 15.9936L85.7062 15.5838C90.2398 15.4795 94.7674 15.4553 99.3066 15.3918C103.846 15.3282 108.145 15.3675 112.566 15.3758C116.988 15.384 121.482 15.4581 125.935 15.509C130.389 15.5599 135.003 15.7539 139.528 15.8907C147.81 16.1473 156.067 16.6337 164.327 17.1909C168.913 17.5339 173.524 17.6571 178.125 17.8097C182.726 17.9622 187.201 18.0652 191.734 18.0817C193.587 18.0893 195.437 18.137 197.288 18.0537C198.181 18.0279 199.073 17.9466 199.961 17.8103C200.755 17.6783 201.53 17.4642 202.322 17.3622C202.562 17.3802 202.799 17.3274 203.04 17.3253L203.033 17.3046Z" fill="#F3D51D"/>
</svg>
